<?xml version="1.0" encoding="utf-8"?>
<!-- Generator: Adobe Illustrator 18.0.0, SVG Export Plug-In . SVG Version: 6.00 Build 0)  -->
<!DOCTYPE svg PUBLIC "-//W3C//DTD SVG 1.1//EN" "http://www.w3.org/Graphics/SVG/1.1/DTD/svg11.dtd">
<svg version="1.1" id="Layer_1" xmlns="http://www.w3.org/2000/svg" xmlns:xlink="http://www.w3.org/1999/xlink" x="0px" y="0px"
	 viewBox="0 0 30 30" enable-background="new 0 0 30 30" xml:space="preserve">
<path d="M30,27.9V6.4c0-0.6-0.2-1.1-0.7-1.5c-0.5-0.4-1-0.6-1.6-0.6h-2.3V2.7c0-0.7-0.3-1.3-0.8-1.9S23.3,0,22.5,0h-1.2
	c-0.8,0-1.5,0.3-2,0.8s-0.8,1.1-0.8,1.9v1.6h-6.9V2.7c0-0.7-0.3-1.3-0.9-1.9S9.4,0,8.7,0H7.5C6.7,0,6,0.3,5.5,0.8S4.6,1.9,4.6,2.7
	v1.6H2.3c-0.6,0-1.2,0.2-1.6,0.6C0.3,5.3,0,5.8,0,6.4l0,21.4c0,0.6,0.2,1.1,0.7,1.5s1,0.6,1.6,0.6h25.4c0.6,0,1.2-0.2,1.6-0.6
	S30,28.5,30,27.9z M27.7,27.9h-5.2V23h5.2V27.9z M27.7,22h-5.2v-5.3h5.2V22z M27.7,15.5h-5.2v-4.8h5.2V15.5z M23.1,7.5
	c0,0.1-0.1,0.3-0.2,0.4S22.6,8.1,22.5,8h-1.2c-0.2,0-0.3,0-0.4-0.1c-0.1-0.1-0.2-0.2-0.2-0.4V2.7c0-0.1,0.1-0.3,0.2-0.4
	s0.3-0.2,0.4-0.2h1.2c0.2,0,0.3,0.1,0.4,0.2c0.1,0.1,0.2,0.2,0.2,0.4V7.5z M21.3,27.9h-5.7V23h5.7V27.9z M21.3,22h-5.7v-5.3h5.7V22z
	 M21.3,15.5h-5.7v-4.8h5.7V15.5z M14.4,27.9H8.7V23h5.8V27.9z M14.4,22H8.7v-5.3h5.8V22z M14.4,15.5H8.7v-4.8h5.8V15.5z M9.2,7.5
	c0,0.1-0.1,0.3-0.2,0.4C9,8,8.8,8.1,8.7,8H7.5C7.4,8,7.2,8,7.1,7.9C7,7.8,6.9,7.7,6.9,7.5V2.7c0-0.1,0.1-0.3,0.2-0.4
	c0.1-0.1,0.2-0.2,0.4-0.2h1.1c0.2,0,0.3,0.1,0.4,0.2c0.1,0.1,0.2,0.2,0.2,0.4V7.5z M7.5,27.9H2.3V23h5.2V27.9z M7.5,22H2.3v-5.3h5.2
	V22z M7.5,15.5H2.3v-4.8h5.2V15.5z"/>
</svg>
