<?xml version="1.0" encoding="utf-8"?>
<!-- Generator: Adobe Illustrator 18.0.0, SVG Export Plug-In . SVG Version: 6.00 Build 0)  -->
<!DOCTYPE svg PUBLIC "-//W3C//DTD SVG 1.1//EN" "http://www.w3.org/Graphics/SVG/1.1/DTD/svg11.dtd">
<svg version="1.1" id="Layer_1" xmlns="http://www.w3.org/2000/svg" xmlns:xlink="http://www.w3.org/1999/xlink" x="0px" y="0px"
	 viewBox="0 0 30 30" enable-background="new 0 0 30 30" xml:space="preserve">
<path d="M29.7,24.1L29.7,24.1L20.6,15l9.1-9.1l0,0c0.1-0.1,0.2-0.2,0.2-0.3c0.1-0.3,0.1-0.7-0.2-1l-4.3-4.3c-0.3-0.3-0.7-0.3-1-0.2
	c-0.1,0-0.2,0.1-0.3,0.2l0,0L15,9.4L5.9,0.3l0,0C5.8,0.2,5.7,0.1,5.6,0.1C5.2-0.1,4.8,0,4.6,0.3L0.3,4.6C0,4.8-0.1,5.2,0.1,5.6
	c0,0.1,0.1,0.2,0.2,0.3l0,0L9.4,15l-9.1,9.1l0,0c-0.1,0.1-0.2,0.2-0.2,0.3c-0.1,0.3-0.1,0.7,0.2,1l4.3,4.3c0.3,0.3,0.7,0.3,1,0.2
	c0.1,0,0.2-0.1,0.3-0.2l0,0l9.1-9.1l9.1,9.1l0,0c0.1,0.1,0.2,0.2,0.3,0.2c0.3,0.1,0.7,0.1,1-0.2l4.3-4.3c0.3-0.3,0.3-0.7,0.2-1
	C29.9,24.3,29.8,24.2,29.7,24.1z"/>
</svg>
