<?xml version="1.0" encoding="utf-8"?>
<!-- Generator: Adobe Illustrator 18.0.0, SVG Export Plug-In . SVG Version: 6.00 Build 0)  -->
<!DOCTYPE svg PUBLIC "-//W3C//DTD SVG 1.1//EN" "http://www.w3.org/Graphics/SVG/1.1/DTD/svg11.dtd">
<svg version="1.1" id="Layer_1" xmlns="http://www.w3.org/2000/svg" xmlns:xlink="http://www.w3.org/1999/xlink" x="0px" y="0px"
	 viewBox="0 0 30 30" enable-background="new 0 0 30 30" xml:space="preserve">
<path d="M30,10.9c0-2-0.5-3.8-1.6-5.5s-2.5-3-4.3-4c-1.8-1-3.8-1.5-5.9-1.5s-4.1,0.5-5.9,1.5S9.1,3.7,8,5.4s-1.6,3.5-1.6,5.5
	S7,14.7,8,16.4s2.5,3,4.3,4c1.8,1,3.8,1.5,5.9,1.5c1,0,1.9-0.1,2.9-0.3c1.4,1.3,3,2.2,4.6,2.7c0.4,0.1,0.9,0.2,1.4,0.3h0.1
	c0.1,0,0.2-0.1,0.4-0.2c0.1-0.1,0.2-0.3,0.2-0.4c0-0.1,0-0.1,0-0.2c0-0.1,0-0.1,0-0.2c0-0.1,0-0.1,0-0.1l0-0.1c0,0,0,0-0.1-0.1
	c0-0.1-0.1-0.1-0.1-0.1s0,0-0.1-0.1S27.5,23,27.5,23c-0.1-0.1-0.2-0.3-0.4-0.5c-0.2-0.3-0.4-0.5-0.5-0.6s-0.2-0.3-0.4-0.6
	c-0.1-0.3-0.3-0.6-0.4-0.8c-0.1-0.2-0.2-0.5-0.3-1c1.4-1,2.5-2.3,3.2-3.7C29.6,14.2,30,12.6,30,10.9z M19.7,24.4
	c-0.6,0.1-1.1,0.1-1.5,0.1c-1.8,0-3.5-0.3-5.2-1c-1.6-0.6-3.1-1.6-4.4-2.7c-1.4-1.3-2.5-2.8-3.2-4.5s-1.1-3.5-1.1-5.4
	c0-1.1,0.1-2.2,0.4-3.2c-1.4,1-2.6,2.3-3.4,3.8S0,14.6,0,16.3c0,1.7,0.4,3.3,1.2,4.8c0.8,1.5,1.9,2.7,3.2,3.7
	c-0.1,0.4-0.2,0.7-0.3,1c-0.1,0.3-0.3,0.5-0.4,0.8c-0.2,0.3-0.3,0.5-0.4,0.6s-0.2,0.4-0.4,0.6c-0.2,0.3-0.3,0.5-0.4,0.5
	c0,0,0,0-0.1,0.1c0,0.1-0.1,0.1-0.1,0.1c0,0,0,0.1-0.1,0.1c0,0.1,0,0.1-0.1,0.1l0,0.1c0,0,0,0,0,0.1c0,0.1,0,0.1,0,0.2
	c0,0,0,0.1,0,0.1c0,0.2,0.1,0.4,0.2,0.5C2.5,30,2.6,30,2.8,30c0.5-0.1,1-0.2,1.4-0.3c1.7-0.6,3.2-1.5,4.7-2.7c1,0.2,2,0.3,2.9,0.3
	C14.8,27.2,17.4,26.3,19.7,24.4z"/>
</svg>
