<?xml version="1.0" encoding="utf-8"?>
<!-- Generator: Adobe Illustrator 18.0.0, SVG Export Plug-In . SVG Version: 6.00 Build 0)  -->
<!DOCTYPE svg PUBLIC "-//W3C//DTD SVG 1.1//EN" "http://www.w3.org/Graphics/SVG/1.1/DTD/svg11.dtd">
<svg version="1.1" id="Layer_1" xmlns="http://www.w3.org/2000/svg" xmlns:xlink="http://www.w3.org/1999/xlink" x="0px" y="0px"
	 viewBox="0 0 30 30" enable-background="new 0 0 30 30" xml:space="preserve">
<path d="M4.1,25.3c-1.2,0-2.1-0.4-2.9-1.2c-0.8-0.8-1.2-1.8-1.2-3V8.9c0-1.2,0.4-2.2,1.2-3C2,5.1,3,4.7,4.1,4.7h21.8
	c1.2,0,2.1,0.4,2.9,1.3c0.8,0.8,1.2,1.8,1.2,3v12.2c0,1.2-0.4,2.2-1.2,3c-0.8,0.8-1.8,1.2-2.9,1.2H4.1z M2.8,21.3
	c0,0.3,0.2,0.5,0.4,0.7c0.3,0.3,0.6,0.4,0.9,0.4h21.8c0.4,0,0.7-0.2,0.9-0.4c0.2-0.2,0.3-0.4,0.4-0.7l-6.6-5.1L16.9,19
	c-0.6,0.5-1.2,0.7-1.9,0.7c-0.7,0-1.4-0.2-2-0.7l-3.7-2.8L2.8,21.3z M27.2,18.9v-7.8l-5,3.9L27.2,18.9z M2.8,18.9l5-3.9l-5-3.9V18.9
	z M14.2,17.5c0.2,0.2,0.5,0.3,0.8,0.3s0.6-0.1,0.8-0.3l3.7-2.9l0.8-0.6l6.9-5.4c0-0.3-0.2-0.5-0.4-0.7c-0.3-0.3-0.6-0.4-0.9-0.4
	L4,7.5c-0.3,0-0.6,0.1-0.9,0.4C3,8.2,2.9,8.4,2.8,8.7L14.2,17.5z"/>
</svg>
