<?xml version="1.0" encoding="utf-8"?>
<!-- Generator: Adobe Illustrator 18.0.0, SVG Export Plug-In . SVG Version: 6.00 Build 0)  -->
<!DOCTYPE svg PUBLIC "-//W3C//DTD SVG 1.1//EN" "http://www.w3.org/Graphics/SVG/1.1/DTD/svg11.dtd">
<svg version="1.1" id="Layer_1" xmlns="http://www.w3.org/2000/svg" xmlns:xlink="http://www.w3.org/1999/xlink" x="0px" y="0px"
	 viewBox="0 0 30 30" enable-background="new 0 0 30 30" xml:space="preserve">
<path d="M16.4,17.6c-0.6-0.3-1.3-0.4-1.9-0.5c-0.4,0-1.2-0.1-2.2-0.1c-1.1-0.1-1.9-0.1-2.5-0.1c-0.6,0-1.1,0-1.6-0.1
	c-0.5,0-1-0.1-1.4-0.2c-0.4-0.1-0.8-0.3-1.1-0.5c-0.3-0.3-0.4-0.7-0.4-1.2c0-0.5,0.2-0.9,0.5-1.2c0.3-0.3,0.7-0.5,1-0.6h2.5
	c1.9,0,3.6-0.6,5.1-1.9c1.4-1.2,2.2-2.7,2.2-4.5c0-0.7-0.1-1.4-0.4-2.1c-0.2-0.7-0.6-1.4-1.1-2V2.6h4.8v-2h-7.1
	c-0.6-0.2-1.3-0.4-1.9-0.5S9.6,0,8.9,0C6.7,0,4.9,0.6,3.4,1.9C2,3.1,1.3,4.7,1.3,6.6c0,1.3,0.4,2.4,1.1,3.4c0.7,1,1.7,1.8,3.1,2.4
	v0.3c-1,0.4-1.8,1-2.3,1.6c-0.5,0.6-0.8,1.3-0.8,2c0,0.6,0.1,1.1,0.3,1.5c0.2,0.4,0.5,0.7,0.9,1c0.3,0.2,0.7,0.5,1.1,0.6
	c0.4,0.2,0.9,0.3,1.3,0.5v0.3c-1.7,0.1-3.1,0.5-4.2,1.3s-1.6,1.9-1.6,3.3c0,1.7,0.8,3,2.3,3.9C3.9,29.6,6.2,30,9.3,30
	c1.9,0,3.5-0.2,4.7-0.5s2.4-0.9,3.3-1.5c0.9-0.6,1.5-1.4,1.9-2.2c0.4-0.9,0.6-1.8,0.6-2.7c0-1-0.2-1.8-0.5-2.4
	c-0.3-0.7-0.7-1.2-1.3-1.8C17.6,18.3,17,17.9,16.4,17.6z M11.6,10.3c-0.6,1-1.5,1.4-2.7,1.4c-1.1,0-1.9-0.5-2.6-1.4
	c-0.7-1-1-2.2-1-3.7c0-0.7,0.1-1.3,0.2-2S5.8,3.5,6,3c0.3-0.5,0.7-0.9,1.1-1.1c0.5-0.3,1-0.4,1.7-0.4c1.2,0,2.1,0.5,2.7,1.4
	c0.7,1,1,2.2,1,3.8C12.5,8.2,12.2,9.4,11.6,10.3z M14.8,27.3C13.6,28,12,28.4,10,28.4c-1.2,0-2.2-0.1-3-0.3
	c-0.8-0.2-1.5-0.5-1.9-0.9C4.6,26.9,4.2,26.4,4,26c-0.2-0.4-0.3-0.9-0.3-1.4c0-1.1,0.3-1.9,0.9-2.6c0.6-0.7,1.7-1.2,3.2-1.5
	c1.6,0,3,0,4.2,0.1c1.2,0.1,2,0.1,2.4,0.2c0.7,0.2,1.3,0.5,1.6,1c0.4,0.5,0.5,1.1,0.5,1.9C16.5,25.3,15.9,26.5,14.8,27.3z"/>
<path d="M24.3,6.7v4h1.6v-4h4V5.2h-4v-4h-1.6v4h-4v1.5C20.3,6.7,24.3,6.7,24.3,6.7z"/>
</svg>
