<?xml version="1.0" encoding="utf-8"?>
<!-- Generator: Adobe Illustrator 18.0.0, SVG Export Plug-In . SVG Version: 6.00 Build 0)  -->
<!DOCTYPE svg PUBLIC "-//W3C//DTD SVG 1.1//EN" "http://www.w3.org/Graphics/SVG/1.1/DTD/svg11.dtd">
<svg version="1.1" id="Layer_1" xmlns="http://www.w3.org/2000/svg" xmlns:xlink="http://www.w3.org/1999/xlink" x="0px" y="0px"
	 viewBox="0 0 30 30" enable-background="new 0 0 30 30" xml:space="preserve">
<g>
	<g>
		<path d="M3.2,0.3C1.3,0.3,0,1.6,0,3.4c0,1.7,1.3,3.1,3.2,3.1c2,0,3.3-1.4,3.3-3.1C6.5,1.6,5.2,0.3,3.2,0.3z M0.2,29.7h6.1v-21H0.2
			V29.7z M22.9,9c-2,0-4-0.4-6.1,2.9h-0.1l-0.1-3.2h-5.4c0.1,1.7,0.1,4.3,0.1,6.8v14.2h6.1V17.6c0-0.6,0.1-1.1,0.2-1.5
			c0.4-1.1,1.4-2.3,3.1-2.3c2.2,0,3.1,1.7,3.1,4.3v11.7H30V17.3C30,11.4,27,9,22.9,9z"/>
	</g>
</g>
</svg>
