<?xml version="1.0" encoding="utf-8"?>
<!-- Generator: Adobe Illustrator 18.0.0, SVG Export Plug-In . SVG Version: 6.00 Build 0)  -->
<!DOCTYPE svg PUBLIC "-//W3C//DTD SVG 1.1//EN" "http://www.w3.org/Graphics/SVG/1.1/DTD/svg11.dtd">
<svg version="1.1" id="Layer_1" xmlns="http://www.w3.org/2000/svg" xmlns:xlink="http://www.w3.org/1999/xlink" x="0px" y="0px"
	 viewBox="0 0 30 30" enable-background="new 0 0 30 30" xml:space="preserve">
<path d="M6.5,22.4C2.2,24,0,25.4,0,26.5L0,30h30v-3.5c0-1.1-2.2-2.5-6.5-4.1c-2-0.8-3.4-1.5-4.1-2.3c-0.7-0.8-1.1-1.8-1.1-3.2
	c0-0.5,0.2-1,0.7-1.6c0.5-0.6,0.8-1.4,1-2.4c0-0.3,0.1-0.5,0.3-0.6c0.1-0.1,0.3-0.2,0.4-0.3s0.3-0.2,0.4-0.6s0.2-0.8,0.3-1.4
	c0-0.4-0.1-0.6-0.2-0.9c-0.1-0.2-0.2-0.4-0.3-0.4l-0.1-0.1c0.2-1.1,0.3-2.1,0.4-2.9C21.4,4.5,21,3.2,20,1.9c-1-1.3-2.6-1.9-5-1.9
	c-2.4,0-4.1,0.6-5,1.9S8.6,4.5,8.7,5.7l0.4,2.9C8.7,8.8,8.5,9.2,8.5,10c0,0.6,0.1,1.1,0.3,1.4C8.9,11.8,9.1,12,9.2,12
	c0.1,0,0.3,0.1,0.4,0.3s0.2,0.3,0.3,0.6c0.2,1.1,0.5,1.9,1,2.5c0.5,0.6,0.7,1.1,0.7,1.6c0,1.3-0.4,2.4-1.1,3.2
	C9.8,20.9,8.5,21.6,6.5,22.4z"/>
</svg>
