<?xml version="1.0" encoding="utf-8"?>
<!-- Generator: Adobe Illustrator 18.0.0, SVG Export Plug-In . SVG Version: 6.00 Build 0)  -->
<!DOCTYPE svg PUBLIC "-//W3C//DTD SVG 1.1//EN" "http://www.w3.org/Graphics/SVG/1.1/DTD/svg11.dtd">
<svg version="1.1" id="Layer_1" xmlns="http://www.w3.org/2000/svg" xmlns:xlink="http://www.w3.org/1999/xlink" x="0px" y="0px"
	 viewBox="0 0 40 30" enable-background="new 0 0 40 30" xml:space="preserve">
<path d="M38.8,25.3l-9.5-5.5c0.5-1.5,0.8-3.2,0.8-4.9c0-8.3-6.7-15-15-15s-15,6.7-15,15c0,8.3,6.7,15,15,15c4.8,0,9-2.2,11.8-5.7
	l9.3,5.4c1.2,0.7,2.7,0.3,3.4-0.9S39.9,26,38.8,25.3z M15.1,26c-6.1,0-11-4.9-11-11S9,4,15.1,4s11,4.9,11,11S21.2,26,15.1,26z"/>
</svg>
