<?xml version="1.0" encoding="utf-8"?>
<!-- Generator: Adobe Illustrator 18.0.0, SVG Export Plug-In . SVG Version: 6.00 Build 0)  -->
<!DOCTYPE svg PUBLIC "-//W3C//DTD SVG 1.1//EN" "http://www.w3.org/Graphics/SVG/1.1/DTD/svg11.dtd">
<svg version="1.1" id="Layer_1" xmlns="http://www.w3.org/2000/svg" xmlns:xlink="http://www.w3.org/1999/xlink" x="0px" y="0px"
	 viewBox="0 0 30 30" enable-background="new 0 0 30 30" xml:space="preserve">
<path d="M2.1,28.3c0.1,0.1,0.1,0.2,0.2,0.4s0.1,0.4,0.2,0.6c0.1,0.2,0.2,0.3,0.2,0.4C2.9,29.9,3,30,3.2,30c0.2,0,0.3-0.1,0.4-0.2
	c0.1-0.1,0.2-0.3,0.2-0.5c0-0.1,0-0.3,0-0.5c0-0.2-0.1-0.3-0.1-0.4c-0.1-0.9-0.1-1.6-0.1-2.3c0-1.3,0.1-2.4,0.3-3.4
	c0.2-1,0.5-1.9,0.8-2.6C5,19.4,5.5,18.7,6,18.2s1.1-1,1.8-1.3s1.4-0.6,2.2-0.8c0.9-0.2,1.7-0.3,2.6-0.4c0.9-0.1,1.8-0.1,2.9-0.1h3.8
	v4.8c0,0.3,0.1,0.6,0.3,0.8c0.2,0.2,0.5,0.4,0.8,0.4c0.3,0,0.5-0.1,0.8-0.4l8.5-9.6c0.2-0.2,0.3-0.5,0.3-0.8c0-0.3-0.1-0.6-0.3-0.8
	l-8.5-9.6C20.9,0.1,20.7,0,20.4,0c-0.3,0-0.6,0.1-0.8,0.3s-0.3,0.5-0.3,0.8V6h-3.8c-8,0-12.8,2.5-14.6,7.6C0.3,15.2,0,17.3,0,19.8
	C0,21.9,0.7,24.7,2.1,28.3z"/>
</svg>
