<?xml version="1.0" encoding="utf-8"?>
<!-- Generator: Adobe Illustrator 18.0.0, SVG Export Plug-In . SVG Version: 6.00 Build 0)  -->
<!DOCTYPE svg PUBLIC "-//W3C//DTD SVG 1.1//EN" "http://www.w3.org/Graphics/SVG/1.1/DTD/svg11.dtd">
<svg version="1.1" id="Layer_1" xmlns="http://www.w3.org/2000/svg" xmlns:xlink="http://www.w3.org/1999/xlink" x="0px" y="0px"
	 viewBox="0 0 30 30" enable-background="new 0 0 30 30" xml:space="preserve">
<path d="M1.1,23.6c-0.7,0.7-1,1.6-1.1,2.6c0,1,0.3,1.9,1.1,2.6C1.9,29.6,2.7,30,3.7,30s1.9-0.4,2.7-1.1c0.8-0.7,1.1-1.6,1.1-2.6
	c0-1-0.4-1.9-1.1-2.6c-0.7-0.7-1.6-1.1-2.7-1.1C2.6,22.5,1.8,22.9,1.1,23.6z M1.1,1.1C0.4,1.9,0,2.7,0,3.7s0.4,1.9,1.1,2.6
	s1.6,1.1,2.7,1.1c5.2,0,9.6,1.8,13.3,5.5s5.5,8.1,5.5,13.3c0,1,0.3,1.9,1.1,2.6c0.7,0.8,1.6,1.1,2.7,1.1c1,0,1.9-0.4,2.7-1.1
	c0.7-0.7,1.1-1.6,1.1-2.6c0-4.7-1.2-9.1-3.5-13.1s-5.6-7.2-9.6-9.6S8.5,0,3.7,0C2.7,0,1.8,0.4,1.1,1.1z M1.1,12.4
	C0.4,13.1,0,14,0,15s0.4,1.9,1.1,2.6c0.7,0.7,1.6,1.1,2.7,1.1c2,0,3.8,0.8,5.3,2.2s2.2,3.2,2.2,5.3c0,1,0.4,1.9,1.1,2.6
	C13,29.7,13.9,30,15,30c1.1,0,2-0.4,2.7-1.1c0.7-0.7,1.1-1.6,1.1-2.6c0-4.1-1.4-7.7-4.4-10.6s-6.5-4.4-10.6-4.4
	C2.7,11.3,1.8,11.7,1.1,12.4z"/>
</svg>
