<?xml version="1.0" encoding="utf-8"?>
<!DOCTYPE svg PUBLIC "-//W3C//DTD SVG 1.1//EN" "http://www.w3.org/Graphics/SVG/1.1/DTD/svg11.dtd">
<svg version="1.1" id="Layer_1" xmlns="http://www.w3.org/2000/svg" xmlns:xlink="http://www.w3.org/1999/xlink" x="0px" y="0px" viewBox="0 0 30 30" enable-background="new 0 0 30 30" xml:space="preserve">
	<path d="M25.9,4.65 C27.1,4.65 28,5.05 28.8,5.95 C29.6,6.75 30,7.75 30,8.95 L30,21.15 C30,22.35 29.6,23.35 28.8,24.15 C28,24.95 27,25.35 25.9,25.35 L4.1,25.35 L4.1,25.341 C2.9,25.341 2,24.941 1.2,24.141 C0.4,23.341 0,22.341 0,21.141 L0,8.85 C0,7.65 0.4,6.65 1.2,5.85 C2,5.05 3,4.65 4.1,4.65 L25.9,4.65 z M25.751,7.323 L4.248,7.323 C3.43,7.323 2.766,8 2.766,8.836 L2.766,20.748 C2.766,21.583 3.43,22.261 4.248,22.261 L25.751,22.261 C26.57,22.261 27.234,21.583 27.234,20.748 L27.234,8.836 C27.234,8 26.57,7.323 25.751,7.323 z M8.766,10 C9.566,10 10.099,10.2 10.432,10.633 C10.766,11.067 10.899,11.5 10.832,11.9 C10.799,12.167 10.766,12.5 10.699,12.867 L10.732,12.9 C10.766,12.9 10.799,12.967 10.832,13.033 C10.866,13.133 10.899,13.2 10.899,13.333 C10.866,13.533 10.832,13.667 10.799,13.8 C10.766,13.933 10.699,13.967 10.666,14 L10.532,14.1 C10.466,14.133 10.432,14.2 10.432,14.3 C10.366,14.633 10.266,14.9 10.099,15.1 C9.932,15.3 9.866,15.467 9.866,15.633 C9.866,16.1 9.999,16.433 10.232,16.7 C10.466,16.967 10.932,17.2 11.599,17.467 C13.032,18 13.766,18.467 13.766,18.833 L13.766,20 L3.766,20 L3.766,18.833 C3.766,18.467 4.499,18 5.932,17.467 C6.599,17.2 7.032,16.967 7.266,16.733 C7.499,16.467 7.632,16.1 7.632,15.667 C7.632,15.5 7.566,15.333 7.399,15.133 C7.232,14.933 7.132,14.667 7.066,14.3 C7.032,14.2 6.999,14.167 6.966,14.1 C6.932,14.033 6.866,14 6.832,14 C6.799,14 6.732,13.933 6.699,13.8 C6.632,13.7 6.599,13.533 6.599,13.333 C6.599,13.067 6.666,12.933 6.799,12.867 L6.666,11.9 C6.632,11.5 6.799,11.067 7.099,10.633 C7.399,10.2 7.966,10 8.766,10 L8.766,10 z M25.814,17.707 C26.036,17.707 26.215,17.931 26.215,18.207 C26.215,18.484 26.036,18.707 25.814,18.707 L16.615,18.707 C16.394,18.707 16.215,18.484 16.215,18.207 C16.215,17.931 16.394,17.707 16.615,17.707 L25.814,17.707 z M25.814,14.361 C26.036,14.361 26.215,14.585 26.215,14.861 C26.215,15.137 26.036,15.361 25.814,15.361 L16.615,15.361 C16.394,15.361 16.215,15.137 16.215,14.861 C16.215,14.585 16.394,14.361 16.615,14.361 L25.814,14.361 z M25.814,10.877 C26.036,10.877 26.215,11.1 26.215,11.377 C26.215,11.653 26.036,11.877 25.814,11.877 L16.615,11.877 C16.394,11.877 16.215,11.653 16.215,11.377 C16.215,11.1 16.394,10.877 16.615,10.877 L25.814,10.877 z"/>
</svg>
