<?xml version="1.0" encoding="utf-8"?>
<!-- Generator: Adobe Illustrator 18.0.0, SVG Export Plug-In . SVG Version: 6.00 Build 0)  -->
<!DOCTYPE svg PUBLIC "-//W3C//DTD SVG 1.1//EN" "http://www.w3.org/Graphics/SVG/1.1/DTD/svg11.dtd">
<svg version="1.1" id="Layer_1" xmlns="http://www.w3.org/2000/svg" xmlns:xlink="http://www.w3.org/1999/xlink" x="0px" y="0px"
	 viewBox="0 0 30 30" enable-background="new 0 0 30 30" xml:space="preserve">
<path d="M29.7,8.8c0,0-0.1-4.4-4.6-4.5C20.6,4.1,15.5,4,15.5,4h-0.9c0,0-5.2,0.1-9.7,0.3C0.3,4.5,0.3,8.6,0.3,8.6s-0.6,6.6-0.1,11.5
	c0.4,3.7,1.2,5.2,5.5,5.4c4.3,0.2,8.8,0.5,8.8,0.5h0.9c0,0,4.5-0.2,8.8-0.4c4.3-0.2,5.1-1.5,5.5-5.2C30.3,15.4,29.7,8.8,29.7,8.8z
	 M12,19.2v-8.5l8.1,4.3L12,19.2z"/>
</svg>
