<svg xmlns="http://www.w3.org/2000/svg" viewBox="0 0 185.07 119.72"><g data-name="Layer 2"><g data-name="Layer 1"><path d="M15.53 24.41l.94-3.74A18.92 18.92 0 0 0 39.45 7l3.74 1a22.78 22.78 0 0 1-27.66 16.41z"/><path d="M165.34 119.72L0 77.81 19.73 0l165.34 41.92zM4.69 75l157.86 40 17.83-70.33L22.52 4.69z"/><path d="M177.13 65.38a22.79 22.79 0 0 1-16.48-27.66l3.74 1a18.93 18.93 0 0 0 13.68 23zM145.61 112.73l-3.74-1a22.79 22.79 0 0 1 27.67-16.47l-.95 3.74a18.94 18.94 0 0 0-22.98 13.73zM24.41 82l-3.74-1A18.92 18.92 0 0 0 7 58.08l1-3.74A22.79 22.79 0 0 1 24.41 82zM98.86 92.55L97.59 92c-1.93-.9-47.25-22.23-39.4-44 2-5.63 5.36-9.12 9.89-10.38 8-2.23 17.35 3.44 21.19 6.13 2.53-4 9-12.72 17.3-13.69 4.67-.55 9.07 1.42 13.07 5.86 15.5 17.15-18.37 54.08-19.82 55.6zM76 41.49a13.53 13.53 0 0 0-6.88-.16c-3.29.92-5.68 3.53-7.28 8-5.36 14.77 23.1 32.22 36.09 38.52a139.28 139.28 0 0 0 14.18-19.17c5.82-9.68 11.35-22.78 4.67-30.19-3.17-3.5-6.36-5-9.76-4.61-8.51 1-15.43 13.48-15.5 13.61l-1.11 2-1.8-1.45c-.08-.04-6.15-4.91-12.61-6.55z"/></g></g></svg>