<svg xmlns="http://www.w3.org/2000/svg" viewBox="0 0 148.61 83.28"><g data-name="Layer 2"><g data-name="Layer 1"><path d="M74.31 0A74.39 74.39 0 0 0 0 74.31a2.5 2.5 0 0 0 2.49 2.49h44.89a2.5 2.5 0 0 0 2.49-2.49 24.42 24.42 0 0 1 39.85-19L78.64 66.45A8.93 8.93 0 1 0 82.17 70l11.08-11.11a24.34 24.34 0 0 1 5.49 15.42 2.5 2.5 0 0 0 2.5 2.49h44.88a2.49 2.49 0 0 0 2.49-2.49A74.39 74.39 0 0 0 74.31 0zm29.32 71.81a29.36 29.36 0 0 0-6.84-16.46L121 31.19a2.49 2.49 0 0 0-3.52-3.53L93.27 51.82A29.41 29.41 0 0 0 45 71.81H5a69.32 69.32 0 0 1 138.55 0z"/><path d="M74.31 9a2.49 2.49 0 0 0-2.5 2.49V38.4a2.5 2.5 0 0 0 5 0V11.47A2.49 2.49 0 0 0 74.31 9zM31.19 27.66a2.5 2.5 0 0 0-3.53 3.53l18 18a2.5 2.5 0 0 0 3.53-3.53z"/></g></g></svg>