<svg style="position: absolute; width: 0; height: 0;" width="0" height="0" version="1.1" xmlns="http://www.w3.org/2000/svg" xmlns:xlink="http://www.w3.org/1999/xlink">
<defs>
<symbol id="icon-calendar" viewBox="0 0 1024 1024">
<title>calendar</title>
<path class="path1" d="M704 512h-64v128h64v-128zM576 512h-64v128h64v-128zM704 320h-64v128h64v-128zM832 512h-64v128h64v-128zM576 704h-64v128h64v-128zM768 0h-64v128h64v-128zM256 0h-64v128h64v-128zM832 320h-64v128h64v-128zM576 320h-64v128h64v-128zM320 704h-64v128h64v-128zM192 512h-64v128h64v-128zM320 512h-64v128h64v-128zM832 64v128h-192v-128h-320v128h-192v-128h-128v896h960v-896h-128zM896 896h-832v-640h832v640zM192 704h-64v128h64v-128zM448 320h-64v128h64v-128zM448 704h-64v128h64v-128zM320 320h-64v128h64v-128zM448 512h-64v128h64v-128zM704 704h-64v128h64v-128z"></path>
</symbol>
<symbol id="icon-clock" viewBox="0 0 896 1024">
<title>clock</title>
<path class="path1" d="M384 576h256l64-64-64-64h-128v-192l-64-64-64 64v320zM448 64c-247.438 0-448 200.562-448 448s200.562 448 448 448c247.438 0 448-200.562 448-448s-200.562-448-448-448zM448 832c-176.25 0-320-143.75-320-320 0-175.938 144.188-319.5 320-320 175.812 0.5 320 144.062 320 320 0 176.25-143.75 320-320 320z"></path>
</symbol>
<symbol id="icon-link-external" viewBox="0 0 768 1024">
<title>link-external</title>
<path class="path1" d="M640 768h-512v-510.094l128-1.906v-128h-256v768h768v-320h-128v192zM384 128l128 128-192 192 128 128 192-192 128 128v-384h-384z"></path>
</symbol>
<symbol id="icon-search" viewBox="0 0 973 1024">
<title>search</title>
<path class="path1" d="M960 832l-249.125-249.125c35.563-58.063 57.125-125.719 57.125-198.875 0-212.031-172-384-384-384-212.031 0-384 171.969-384 384 0 212 171.969 384 384 384 73.156 0 140.812-21.562 198.875-57l249.125 249c17.5 17.5 46.5 17.375 64 0l64-64c17.5-17.5 17.5-46.5 0-64zM384 640c-141.375 0-256-114.625-256-256s114.625-256 256-256 256 114.625 256 256-114.625 256-256 256z"></path>
</symbol>
<symbol id="icon-three-bars" viewBox="0 0 768 1024">
<title>three-bars</title>
<path class="path1" d="M0 192v128h768v-128h-768zM0 576h768v-128h-768v128zM0 832h768v-128h-768v128z"></path>
</symbol>
<symbol id="icon-x" viewBox="0 0 640 1024">
<title>x</title>
<path class="path1" d="M640 320l-128-128-192 192-192-192-128 128 192 192-192 192 128 128 192-192 192 192 128-128-192-192 192-192z"></path>
</symbol>
<symbol id="icon-home3" viewBox="0 0 1024 1024">
<title>home3</title>
<path class="path1" d="M1024 608l-192-192v-288h-128v160l-192-192-512 512v32h128v320h320v-192h128v192h320v-320h128z"></path>
</symbol>
<symbol id="icon-newspaper" viewBox="0 0 1024 1024">
<title>newspaper</title>
<path class="path1" d="M896 256v-128h-896v704c0 35.346 28.654 64 64 64h864c53.022 0 96-42.978 96-96v-544h-128zM832 832h-768v-640h768v640zM128 320h640v64h-640zM512 448h256v64h-256zM512 576h256v64h-256zM512 704h192v64h-192zM128 448h320v320h-320z"></path>
</symbol>
<symbol id="icon-images" viewBox="0 0 1152 1024">
<title>images</title>
<path class="path1" d="M1088 128h-64v-64c0-35.2-28.8-64-64-64h-896c-35.2 0-64 28.8-64 64v768c0 35.2 28.8 64 64 64h64v64c0 35.2 28.8 64 64 64h896c35.2 0 64-28.8 64-64v-768c0-35.2-28.8-64-64-64zM128 192v640h-63.886c-0.040-0.034-0.082-0.076-0.114-0.116v-767.77c0.034-0.040 0.076-0.082 0.114-0.114h895.77c0.040 0.034 0.082 0.076 0.116 0.116v63.884h-768c-35.2 0-64 28.8-64 64v0zM1088 959.884c-0.034 0.040-0.076 0.082-0.116 0.116h-895.77c-0.040-0.034-0.082-0.076-0.114-0.116v-767.77c0.034-0.040 0.076-0.082 0.114-0.114h895.77c0.040 0.034 0.082 0.076 0.116 0.116v767.768z"></path>
<path class="path2" d="M960 352c0 53.020-42.98 96-96 96s-96-42.98-96-96 42.98-96 96-96 96 42.98 96 96z"></path>
<path class="path3" d="M1024 896h-768v-128l224-384 256 320h64l224-192z"></path>
</symbol>
<symbol id="icon-camera" viewBox="0 0 1024 1024">
<title>camera</title>
<path class="path1" d="M304 608c0 114.876 93.124 208 208 208s208-93.124 208-208-93.124-208-208-208-208 93.124-208 208zM960 256h-224c-16-64-32-128-96-128h-256c-64 0-80 64-96 128h-224c-35.2 0-64 28.8-64 64v576c0 35.2 28.8 64 64 64h896c35.2 0 64-28.8 64-64v-576c0-35.2-28.8-64-64-64zM512 892c-156.85 0-284-127.148-284-284 0-156.85 127.15-284 284-284 156.852 0 284 127.15 284 284 0 156.852-127.146 284-284 284zM960 448h-128v-64h128v64z"></path>
</symbol>
<symbol id="icon-headphones" viewBox="0 0 1024 1024">
<title>headphones</title>
<path class="path1" d="M288 576h-64v448h64c17.6 0 32-14.4 32-32v-384c0-17.6-14.4-32-32-32z"></path>
<path class="path2" d="M736 576c-17.602 0-32 14.4-32 32v384c0 17.6 14.398 32 32 32h64v-448h-64z"></path>
<path class="path3" d="M1024 512c0-282.77-229.23-512-512-512s-512 229.23-512 512c0 61.412 10.83 120.29 30.656 174.848-19.478 33.206-30.656 71.87-30.656 113.152 0 112.846 83.448 206.188 192 221.716v-443.418c-31.914 4.566-61.664 15.842-87.754 32.378-5.392-26.718-8.246-54.364-8.246-82.676 0-229.75 186.25-416 416-416s416 186.25 416 416c0 28.314-2.83 55.968-8.22 82.696-26.1-16.546-55.854-27.848-87.78-32.418v443.44c108.548-15.532 192-108.874 192-221.714 0-41.274-11.178-79.934-30.648-113.138 19.828-54.566 30.648-113.452 30.648-174.866z"></path>
</symbol>
<symbol id="icon-connection" viewBox="0 0 1280 1024">
<title>connection</title>
<path class="path1" d="M640 576c105.87 0 201.87 43.066 271.402 112.598l-90.468 90.468c-46.354-46.356-110.356-75.066-180.934-75.066s-134.578 28.71-180.934 75.066l-90.468-90.468c69.532-69.532 165.532-112.598 271.402-112.598zM187.452 507.452c120.88-120.88 281.598-187.452 452.548-187.452s331.668 66.572 452.55 187.452l-90.51 90.508c-96.706-96.704-225.28-149.96-362.040-149.96-136.762 0-265.334 53.256-362.038 149.962l-90.51-90.51zM988.784 134.438c106.702 45.132 202.516 109.728 284.782 191.996v0l-90.508 90.508c-145.056-145.056-337.92-224.942-543.058-224.942-205.14 0-398 79.886-543.058 224.942l-90.51-90.51c82.268-82.266 178.082-146.862 284.784-191.994 110.504-46.738 227.852-70.438 348.784-70.438s238.278 23.7 348.784 70.438zM576 896c0-35.346 28.654-64 64-64s64 28.654 64 64c0 35.346-28.654 64-64 64s-64-28.654-64-64z"></path>
</symbol>
<symbol id="icon-mic" viewBox="0 0 1024 1024">
<title>mic</title>
<path class="path1" d="M480 704c88.366 0 160-71.634 160-160v-384c0-88.366-71.634-160-160-160s-160 71.634-160 160v384c0 88.366 71.636 160 160 160zM704 448v96c0 123.71-100.29 224-224 224-123.712 0-224-100.29-224-224v-96h-64v96c0 148.238 112.004 270.3 256 286.22v129.78h-128v64h320v-64h-128v-129.78c143.994-15.92 256-137.982 256-286.22v-96h-64z"></path>
</symbol>
<symbol id="icon-book" viewBox="0 0 1024 1024">
<title>book</title>
<path class="path1" d="M896 128v832h-672c-53.026 0-96-42.98-96-96s42.974-96 96-96h608v-768h-640c-70.398 0-128 57.6-128 128v768c0 70.4 57.602 128 128 128h768v-896h-64z"></path>
<path class="path2" d="M224.056 832v0c-0.018 0.002-0.038 0-0.056 0-17.672 0-32 14.326-32 32s14.328 32 32 32c0.018 0 0.038-0.002 0.056-0.002v0.002h607.89v-64h-607.89z"></path>
</symbol>
<symbol id="icon-file-text" viewBox="0 0 1024 1024">
<title>file-text</title>
<path class="path1" d="M864 0h-768c-52.8 0-96 43.2-96 96v832c0 52.8 43.2 96 96 96h768c52.8 0 96-43.2 96-96v-832c0-52.8-43.2-96-96-96zM832 896h-704v-768h704v768zM256 448h448v64h-448zM256 576h448v64h-448zM256 704h448v64h-448zM256 320h448v64h-448z"></path>
</symbol>
<symbol id="icon-file-empty" viewBox="0 0 1024 1024">
<title>file-empty</title>
<path class="path1" d="M917.806 229.076c-22.212-30.292-53.174-65.7-87.178-99.704s-69.412-64.964-99.704-87.178c-51.574-37.82-76.592-42.194-90.924-42.194h-496c-44.112 0-80 35.888-80 80v864c0 44.112 35.888 80 80 80h736c44.112 0 80-35.888 80-80v-624c0-14.332-4.372-39.35-42.194-90.924zM785.374 174.626c30.7 30.7 54.8 58.398 72.58 81.374h-153.954v-153.946c22.984 17.78 50.678 41.878 81.374 72.572zM896 944c0 8.672-7.328 16-16 16h-736c-8.672 0-16-7.328-16-16v-864c0-8.672 7.328-16 16-16 0 0 495.956-0.002 496 0v224c0 17.672 14.326 32 32 32h224v624z"></path>
</symbol>
<symbol id="icon-files-empty" viewBox="0 0 1024 1024">
<title>files-empty</title>
<path class="path1" d="M917.806 357.076c-22.21-30.292-53.174-65.7-87.178-99.704s-69.412-64.964-99.704-87.178c-51.574-37.82-76.592-42.194-90.924-42.194h-368c-44.114 0-80 35.888-80 80v736c0 44.112 35.886 80 80 80h608c44.112 0 80-35.888 80-80v-496c0-14.332-4.372-39.35-42.194-90.924zM785.374 302.626c30.7 30.7 54.8 58.398 72.58 81.374h-153.954v-153.946c22.982 17.78 50.678 41.878 81.374 72.572v0zM896 944c0 8.672-7.328 16-16 16h-608c-8.672 0-16-7.328-16-16v-736c0-8.672 7.328-16 16-16 0 0 367.956-0.002 368 0v224c0 17.672 14.324 32 32 32h224v496z"></path>
<path class="path2" d="M602.924 42.196c-51.574-37.822-76.592-42.196-90.924-42.196h-368c-44.112 0-80 35.888-80 80v736c0 38.632 27.528 70.958 64 78.39v-814.39c0-8.672 7.328-16 16-16h486.876c-9.646-7.92-19.028-15.26-27.952-21.804z"></path>
</symbol>
<symbol id="icon-file-text2" viewBox="0 0 1024 1024">
<title>file-text2</title>
<path class="path1" d="M917.806 229.076c-22.212-30.292-53.174-65.7-87.178-99.704s-69.412-64.964-99.704-87.178c-51.574-37.82-76.592-42.194-90.924-42.194h-496c-44.112 0-80 35.888-80 80v864c0 44.112 35.888 80 80 80h736c44.112 0 80-35.888 80-80v-624c0-14.332-4.372-39.35-42.194-90.924zM785.374 174.626c30.7 30.7 54.8 58.398 72.58 81.374h-153.954v-153.946c22.984 17.78 50.678 41.878 81.374 72.572zM896 944c0 8.672-7.328 16-16 16h-736c-8.672 0-16-7.328-16-16v-864c0-8.672 7.328-16 16-16 0 0 495.956-0.002 496 0v224c0 17.672 14.326 32 32 32h224v624z"></path>
<path class="path2" d="M736 832h-448c-17.672 0-32-14.326-32-32s14.328-32 32-32h448c17.674 0 32 14.326 32 32s-14.326 32-32 32z"></path>
<path class="path3" d="M736 704h-448c-17.672 0-32-14.326-32-32s14.328-32 32-32h448c17.674 0 32 14.326 32 32s-14.326 32-32 32z"></path>
<path class="path4" d="M736 576h-448c-17.672 0-32-14.326-32-32s14.328-32 32-32h448c17.674 0 32 14.326 32 32s-14.326 32-32 32z"></path>
</symbol>
<symbol id="icon-file-picture" viewBox="0 0 1024 1024">
<title>file-picture</title>
<path class="path1" d="M832 896h-640v-128l192-320 263 320 185-128v256z"></path>
<path class="path2" d="M832 480c0 53.020-42.98 96-96 96-53.022 0-96-42.98-96-96s42.978-96 96-96c53.020 0 96 42.98 96 96z"></path>
<path class="path3" d="M917.806 229.076c-22.212-30.292-53.174-65.7-87.178-99.704s-69.412-64.964-99.704-87.178c-51.574-37.82-76.592-42.194-90.924-42.194h-496c-44.112 0-80 35.888-80 80v864c0 44.112 35.888 80 80 80h736c44.112 0 80-35.888 80-80v-624c0-14.332-4.372-39.35-42.194-90.924zM785.374 174.626c30.7 30.7 54.8 58.398 72.58 81.374h-153.954v-153.946c22.984 17.78 50.678 41.878 81.374 72.572zM896 944c0 8.672-7.328 16-16 16h-736c-8.672 0-16-7.328-16-16v-864c0-8.672 7.328-16 16-16 0 0 495.956-0.002 496 0v224c0 17.672 14.326 32 32 32h224v624z"></path>
</symbol>
<symbol id="icon-file-music" viewBox="0 0 1024 1024">
<title>file-music</title>
<path class="path1" d="M917.806 229.076c-22.21-30.292-53.174-65.7-87.178-99.704s-69.412-64.964-99.704-87.178c-51.574-37.82-76.592-42.194-90.924-42.194h-496c-44.112 0-80 35.888-80 80v864c0 44.112 35.886 80 80 80h736c44.112 0 80-35.888 80-80v-624c0-14.332-4.372-39.35-42.194-90.924v0zM785.374 174.626c30.7 30.7 54.8 58.398 72.58 81.374h-153.954v-153.946c22.982 17.78 50.678 41.878 81.374 72.572v0zM896 944c0 8.672-7.328 16-16 16h-736c-8.672 0-16-7.328-16-16v-864c0-8.672 7.328-16 16-16 0 0 495.956-0.002 496 0v224c0 17.672 14.324 32 32 32h224v624z"></path>
<path class="path2" d="M756.288 391.252c-7.414-6.080-17.164-8.514-26.562-6.632l-320 64c-14.958 2.994-25.726 16.126-25.726 31.38v236.876c-18.832-8.174-40.678-12.876-64-12.876-70.692 0-128 42.98-128 96s57.308 96 128 96 128-42.98 128-96v-229.766l256-51.202v133.842c-18.832-8.174-40.678-12.876-64-12.876-70.692 0-128 42.98-128 96s57.308 96 128 96 128-42.98 128-96v-319.998c0-9.586-4.298-18.668-11.712-24.748z"></path>
</symbol>
<symbol id="icon-file-play" viewBox="0 0 1024 1024">
<title>file-play</title>
<path class="path1" d="M384 384l320 224-320 224v-448z"></path>
<path class="path2" d="M917.806 229.076c-22.212-30.292-53.174-65.7-87.178-99.704s-69.412-64.964-99.704-87.178c-51.574-37.82-76.592-42.194-90.924-42.194h-496c-44.112 0-80 35.888-80 80v864c0 44.112 35.888 80 80 80h736c44.112 0 80-35.888 80-80v-624c0-14.332-4.372-39.35-42.194-90.924zM785.374 174.626c30.7 30.7 54.8 58.398 72.58 81.374h-153.954v-153.946c22.984 17.78 50.678 41.878 81.374 72.572zM896 944c0 8.672-7.328 16-16 16h-736c-8.672 0-16-7.328-16-16v-864c0-8.672 7.328-16 16-16 0 0 495.956-0.002 496 0v224c0 17.672 14.326 32 32 32h224v624z"></path>
</symbol>
<symbol id="icon-paste" viewBox="0 0 1024 1024">
<title>paste</title>
<path class="path1" d="M704 128h-128v-64c0-35.2-28.8-64-64-64h-128c-35.204 0-64 28.8-64 64v64h-128v128h512v-128zM512 128h-128v-63.886c0.034-0.038 0.072-0.078 0.114-0.114h127.768c0.042 0.036 0.082 0.076 0.118 0.114v63.886zM832 320v-160c0-17.6-14.4-32-32-32h-64v64h32v128h-192l-192 192v256h-256v-576h32v-64h-64c-17.602 0-32 14.4-32 32v640c0 17.6 14.398 32 32 32h288v192h640v-704h-192zM576 410.51v101.49h-101.49l101.49-101.49zM960 960h-512v-384h192v-192h320v576z"></path>
</symbol>
<symbol id="icon-stack" viewBox="0 0 1024 1024">
<title>stack</title>
<path class="path1" d="M1024 320l-512-256-512 256 512 256 512-256zM512 148.97l342.058 171.030-342.058 171.030-342.058-171.030 342.058-171.030zM921.444 460.722l102.556 51.278-512 256-512-256 102.556-51.278 409.444 204.722zM921.444 652.722l102.556 51.278-512 256-512-256 102.556-51.278 409.444 204.722z"></path>
</symbol>
<symbol id="icon-phone" viewBox="0 0 1024 1024">
<title>phone</title>
<path class="path1" d="M704 640c-64 64-64 128-128 128s-128-64-192-128-128-128-128-192 64-64 128-128-128-256-192-256-192 192-192 192c0 128 131.5 387.5 256 512s384 256 512 256c0 0 192-128 192-192s-192-256-256-192z"></path>
</symbol>
<symbol id="icon-envelop" viewBox="0 0 1024 1024">
<title>envelop</title>
<path class="path1" d="M928 128h-832c-52.8 0-96 43.2-96 96v640c0 52.8 43.2 96 96 96h832c52.8 0 96-43.2 96-96v-640c0-52.8-43.2-96-96-96zM398.74 550.372l-270.74 210.892v-501.642l270.74 290.75zM176.38 256h671.24l-335.62 252-335.62-252zM409.288 561.698l102.712 110.302 102.71-110.302 210.554 270.302h-626.528l210.552-270.302zM625.26 550.372l270.74-290.75v501.642l-270.74-210.892z"></path>
</symbol>
<symbol id="icon-location" viewBox="0 0 1024 1024">
<title>location</title>
<path class="path1" d="M512 0c-176.732 0-320 143.268-320 320 0 320 320 704 320 704s320-384 320-704c0-176.732-143.27-320-320-320zM512 512c-106.040 0-192-85.96-192-192s85.96-192 192-192 192 85.96 192 192-85.96 192-192 192z"></path>
</symbol>
<symbol id="icon-location2" viewBox="0 0 1024 1024">
<title>location2</title>
<path class="path1" d="M512 0c-176.732 0-320 143.268-320 320 0 320 320 704 320 704s320-384 320-704c0-176.732-143.27-320-320-320zM512 516c-108.248 0-196-87.752-196-196s87.752-196 196-196 196 87.752 196 196-87.752 196-196 196zM388 320c0-68.483 55.517-124 124-124s124 55.517 124 124c0 68.483-55.517 124-124 124s-124-55.517-124-124z"></path>
</symbol>
<symbol id="icon-compass" viewBox="0 0 1024 1024">
<title>compass</title>
<path class="path1" d="M544.010 1024.004c-2.296 0-4.622-0.25-6.94-0.764-14.648-3.25-25.070-16.238-25.070-31.24v-480h-480c-15.002 0-27.992-10.422-31.24-25.070-3.25-14.646 4.114-29.584 17.708-35.928l960-448c12.196-5.688 26.644-3.144 36.16 6.372 9.516 9.514 12.060 23.966 6.372 36.16l-448 960c-5.342 11.44-16.772 18.47-28.99 18.47zM176.242 448h367.758c17.674 0 32 14.328 32 32v367.758l349.79-749.546-749.548 349.788z"></path>
</symbol>
<symbol id="icon-clock2" viewBox="0 0 1024 1024">
<title>clock2</title>
<path class="path1" d="M658.744 749.256l-210.744-210.746v-282.51h128v229.49l173.256 173.254zM512 0c-282.77 0-512 229.23-512 512s229.23 512 512 512 512-229.23 512-512-229.23-512-512-512zM512 896c-212.078 0-384-171.922-384-384s171.922-384 384-384c212.078 0 384 171.922 384 384s-171.922 384-384 384z"></path>
</symbol>
<symbol id="icon-clock22" viewBox="0 0 1024 1024">
<title>clock22</title>
<path class="path1" d="M512 0c-282.77 0-512 229.23-512 512s229.23 512 512 512 512-229.23 512-512-229.23-512-512-512zM658.744 749.256l-210.744-210.746v-282.51h128v229.49l173.256 173.254-90.512 90.512z"></path>
</symbol>
<symbol id="icon-mobile" viewBox="0 0 1024 1024">
<title>mobile</title>
<path class="path1" d="M736 0h-448c-52.8 0-96 43.2-96 96v832c0 52.8 43.2 96 96 96h448c52.8 0 96-43.2 96-96v-832c0-52.8-43.2-96-96-96zM384 48h256v32h-256v-32zM512 960c-35.346 0-64-28.654-64-64s28.654-64 64-64 64 28.654 64 64-28.654 64-64 64zM768 768h-512v-640h512v640z"></path>
</symbol>
<symbol id="icon-drawer" viewBox="0 0 1024 1024">
<title>drawer</title>
<path class="path1" d="M1016.988 652.010l-256-320c-6.074-7.592-15.266-12.010-24.988-12.010h-448c-9.72 0-18.916 4.418-24.988 12.010l-256 320c-4.538 5.674-7.012 12.724-7.012 19.99v288c0 35.346 28.654 64 64 64h896c35.348 0 64-28.654 64-64v-288c0-7.266-2.472-14.316-7.012-19.99zM960 704h-224l-128 128h-192l-128-128h-224v-20.776l239.38-299.224h417.24l239.38 299.224v20.776z"></path>
<path class="path2" d="M736 512h-448c-17.672 0-32-14.328-32-32s14.328-32 32-32h448c17.674 0 32 14.328 32 32s-14.326 32-32 32z"></path>
<path class="path3" d="M800 640h-576c-17.672 0-32-14.326-32-32s14.328-32 32-32h576c17.674 0 32 14.326 32 32s-14.326 32-32 32z"></path>
</symbol>
<symbol id="icon-drawer2" viewBox="0 0 1024 1024">
<title>drawer2</title>
<path class="path1" d="M1016.988 652.010l-256-320c-6.074-7.592-15.266-12.010-24.988-12.010h-448c-9.72 0-18.916 4.418-24.988 12.010l-256 320c-4.538 5.674-7.012 12.724-7.012 19.99v288c0 35.346 28.654 64 64 64h896c35.348 0 64-28.654 64-64v-288c0-7.266-2.472-14.316-7.012-19.99zM960 704h-224l-128 128h-192l-128-128h-224v-20.776l239.38-299.224h417.24l239.38 299.224v20.776z"></path>
</symbol>
<symbol id="icon-database" viewBox="0 0 1024 1024">
<title>database</title>
<path class="path1" d="M512 0c-282.77 0-512 71.634-512 160v128c0 88.366 229.23 160 512 160s512-71.634 512-160v-128c0-88.366-229.23-160-512-160z"></path>
<path class="path2" d="M512 544c-282.77 0-512-71.634-512-160v192c0 88.366 229.23 160 512 160s512-71.634 512-160v-192c0 88.366-229.23 160-512 160z"></path>
<path class="path3" d="M512 832c-282.77 0-512-71.634-512-160v192c0 88.366 229.23 160 512 160s512-71.634 512-160v-192c0 88.366-229.23 160-512 160z"></path>
</symbol>
<symbol id="icon-bubble" viewBox="0 0 1024 1024">
<title>bubble</title>
<path class="path1" d="M512 64c282.77 0 512 186.25 512 416 0 229.752-229.23 416-512 416-27.156 0-53.81-1.734-79.824-5.044-109.978 109.978-241.25 129.7-368.176 132.596v-26.916c68.536-33.578 128-94.74 128-164.636 0-9.754-0.758-19.33-2.164-28.696-115.796-76.264-189.836-192.754-189.836-323.304 0-229.75 229.23-416 512-416z"></path>
</symbol>
<symbol id="icon-user" viewBox="0 0 1024 1024">
<title>user</title>
<path class="path1" d="M576 706.612v-52.78c70.498-39.728 128-138.772 128-237.832 0-159.058 0-288-192-288s-192 128.942-192 288c0 99.060 57.502 198.104 128 237.832v52.78c-217.102 17.748-384 124.42-384 253.388h896c0-128.968-166.898-235.64-384-253.388z"></path>
</symbol>
<symbol id="icon-users" viewBox="0 0 1152 1024">
<title>users</title>
<path class="path1" d="M768 770.612v-52.78c70.498-39.728 128-138.772 128-237.832 0-159.058 0-288-192-288s-192 128.942-192 288c0 99.060 57.502 198.104 128 237.832v52.78c-217.102 17.748-384 124.42-384 253.388h896c0-128.968-166.898-235.64-384-253.388z"></path>
<path class="path2" d="M327.196 795.328c55.31-36.15 124.080-63.636 199.788-80.414-15.054-17.784-28.708-37.622-40.492-59.020-30.414-55.234-46.492-116.058-46.492-175.894 0-86.042 0-167.31 30.6-233.762 29.706-64.504 83.128-104.496 159.222-119.488-16.914-76.48-61.94-126.75-181.822-126.75-192 0-192 128.942-192 288 0 99.060 57.502 198.104 128 237.832v52.78c-217.102 17.748-384 124.42-384 253.388h279.006c14.518-12.91 30.596-25.172 48.19-36.672z"></path>
</symbol>
<symbol id="icon-spinner2" viewBox="0 0 1024 1024">
<title>spinner2</title>
<path class="path1" d="M1024 512c-1.278-66.862-15.784-133.516-42.576-194.462-26.704-61-65.462-116.258-113.042-161.92-47.552-45.696-103.944-81.82-164.984-105.652-61.004-23.924-126.596-35.352-191.398-33.966-64.81 1.282-129.332 15.374-188.334 41.356-59.048 25.896-112.542 63.47-156.734 109.576-44.224 46.082-79.16 100.708-102.186 159.798-23.114 59.062-34.128 122.52-32.746 185.27 1.286 62.76 14.964 125.148 40.134 182.206 25.088 57.1 61.476 108.828 106.11 151.548 44.61 42.754 97.472 76.504 154.614 98.72 57.118 22.304 118.446 32.902 179.142 31.526 60.708-1.29 120.962-14.554 176.076-38.914 55.15-24.282 105.116-59.48 146.366-102.644 41.282-43.14 73.844-94.236 95.254-149.43 13.034-33.458 21.88-68.4 26.542-103.798 1.246 0.072 2.498 0.12 3.762 0.12 35.346 0 64-28.652 64-64 0-1.796-0.094-3.572-0.238-5.332h0.238zM922.306 681.948c-23.472 53.202-57.484 101.4-99.178 141.18-41.67 39.81-91 71.186-144.244 91.79-53.228 20.678-110.29 30.452-166.884 29.082-56.604-1.298-112.596-13.736-163.82-36.474-51.25-22.666-97.684-55.49-135.994-95.712-38.338-40.198-68.528-87.764-88.322-139.058-19.87-51.284-29.228-106.214-27.864-160.756 1.302-54.552 13.328-108.412 35.254-157.69 21.858-49.3 53.498-93.97 92.246-130.81 38.73-36.868 84.53-65.87 133.874-84.856 49.338-19.060 102.136-28.006 154.626-26.644 52.5 1.306 104.228 12.918 151.562 34.034 47.352 21.050 90.256 51.502 125.624 88.782 35.396 37.258 63.21 81.294 81.39 128.688 18.248 47.392 26.782 98.058 25.424 148.496h0.238c-0.144 1.76-0.238 3.536-0.238 5.332 0 33.012 24.992 60.174 57.086 63.624-6.224 34.822-16.53 68.818-30.78 100.992z"></path>
</symbol>
<symbol id="icon-lock" viewBox="0 0 1024 1024">
<title>lock</title>
<path class="path1" d="M592 448h-16v-192c0-105.87-86.13-192-192-192h-128c-105.87 0-192 86.13-192 192v192h-16c-26.4 0-48 21.6-48 48v480c0 26.4 21.6 48 48 48h544c26.4 0 48-21.6 48-48v-480c0-26.4-21.6-48-48-48zM192 256c0-35.29 28.71-64 64-64h128c35.29 0 64 28.71 64 64v192h-256v-192z"></path>
</symbol>
<symbol id="icon-menu" viewBox="0 0 1024 1024">
<title>menu</title>
<path class="path1" d="M64 192h896v192h-896zM64 448h896v192h-896zM64 704h896v192h-896z"></path>
</symbol>
<symbol id="icon-warning" viewBox="0 0 1024 1024">
<title>warning</title>
<path class="path1" d="M512 92.774l429.102 855.226h-858.206l429.104-855.226zM512 0c-22.070 0-44.14 14.882-60.884 44.648l-437.074 871.112c-33.486 59.532-5 108.24 63.304 108.24h869.308c68.3 0 96.792-48.708 63.3-108.24h0.002l-437.074-871.112c-16.742-29.766-38.812-44.648-60.882-44.648v0z"></path>
<path class="path2" d="M576 832c0 35.346-28.654 64-64 64s-64-28.654-64-64c0-35.346 28.654-64 64-64s64 28.654 64 64z"></path>
<path class="path3" d="M512 704c-35.346 0-64-28.654-64-64v-192c0-35.346 28.654-64 64-64s64 28.654 64 64v192c0 35.346-28.654 64-64 64z"></path>
</symbol>
<symbol id="icon-notification" viewBox="0 0 1024 1024">
<title>notification</title>
<path class="path1" d="M512 96c-111.118 0-215.584 43.272-294.156 121.844s-121.844 183.038-121.844 294.156c0 111.118 43.272 215.584 121.844 294.156s183.038 121.844 294.156 121.844c111.118 0 215.584-43.272 294.156-121.844s121.844-183.038 121.844-294.156c0-111.118-43.272-215.584-121.844-294.156s-183.038-121.844-294.156-121.844zM512 0v0c282.77 0 512 229.23 512 512s-229.23 512-512 512c-282.77 0-512-229.23-512-512s229.23-512 512-512zM448 704h128v128h-128zM448 192h128v384h-128z"></path>
</symbol>
<symbol id="icon-question" viewBox="0 0 1024 1024">
<title>question</title>
<path class="path1" d="M448 704h128v128h-128zM704 256c35.346 0 64 28.654 64 64v192l-192 128h-128v-64l192-128v-64h-320v-128h384zM512 96c-111.118 0-215.584 43.272-294.156 121.844s-121.844 183.038-121.844 294.156c0 111.118 43.272 215.584 121.844 294.156s183.038 121.844 294.156 121.844c111.118 0 215.584-43.272 294.156-121.844s121.844-183.038 121.844-294.156c0-111.118-43.272-215.584-121.844-294.156s-183.038-121.844-294.156-121.844zM512 0v0c282.77 0 512 229.23 512 512s-229.23 512-512 512c-282.77 0-512-229.23-512-512s229.23-512 512-512z"></path>
</symbol>
<symbol id="icon-info" viewBox="0 0 1024 1024">
<title>info</title>
<path class="path1" d="M448 304c0-26.4 21.6-48 48-48h32c26.4 0 48 21.6 48 48v32c0 26.4-21.6 48-48 48h-32c-26.4 0-48-21.6-48-48v-32z"></path>
<path class="path2" d="M640 768h-256v-64h64v-192h-64v-64h192v256h64z"></path>
<path class="path3" d="M512 0c-282.77 0-512 229.23-512 512s229.23 512 512 512 512-229.23 512-512-229.23-512-512-512zM512 928c-229.75 0-416-186.25-416-416s186.25-416 416-416 416 186.25 416 416-186.25 416-416 416z"></path>
</symbol>
<symbol id="icon-cancel-circle" viewBox="0 0 1024 1024">
<title>cancel-circle</title>
<path class="path1" d="M512 0c-282.77 0-512 229.23-512 512s229.23 512 512 512 512-229.23 512-512-229.23-512-512-512zM512 928c-229.75 0-416-186.25-416-416s186.25-416 416-416 416 186.25 416 416-186.25 416-416 416z"></path>
<path class="path2" d="M672 256l-160 160-160-160-96 96 160 160-160 160 96 96 160-160 160 160 96-96-160-160 160-160z"></path>
</symbol>
<symbol id="icon-checkbox-checked" viewBox="0 0 1024 1024">
<title>checkbox-checked</title>
<path class="path1" d="M896 0h-768c-70.4 0-128 57.6-128 128v768c0 70.4 57.6 128 128 128h768c70.4 0 128-57.6 128-128v-768c0-70.4-57.6-128-128-128zM448 794.51l-237.254-237.256 90.51-90.508 146.744 146.744 306.746-306.746 90.508 90.51-397.254 397.256z"></path>
</symbol>
<symbol id="icon-checkbox-unchecked" viewBox="0 0 1024 1024">
<title>checkbox-unchecked</title>
<path class="path1" d="M896 0h-768c-70.4 0-128 57.6-128 128v768c0 70.4 57.6 128 128 128h768c70.4 0 128-57.6 128-128v-768c0-70.4-57.6-128-128-128zM896 896h-768v-768h768v768z"></path>
</symbol>
<symbol id="icon-radio-checked" viewBox="0 0 1024 1024">
<title>radio-checked</title>
<path class="path1" d="M512 0c-282.77 0-512 229.23-512 512s229.23 512 512 512 512-229.23 512-512-229.23-512-512-512zM512 896c-212.078 0-384-171.922-384-384s171.922-384 384-384c212.078 0 384 171.922 384 384s-171.922 384-384 384zM320 512c0-106.039 85.961-192 192-192s192 85.961 192 192c0 106.039-85.961 192-192 192s-192-85.961-192-192z"></path>
</symbol>
<symbol id="icon-radio-checked2" viewBox="0 0 1024 1024">
<title>radio-checked2</title>
<path class="path1" d="M512 0c-282.77 0-512 229.23-512 512s229.23 512 512 512 512-229.23 512-512-229.23-512-512-512zM512 640c-70.692 0-128-57.306-128-128 0-70.692 57.308-128 128-128 70.694 0 128 57.308 128 128 0 70.694-57.306 128-128 128z"></path>
</symbol>
<symbol id="icon-radio-unchecked" viewBox="0 0 1024 1024">
<title>radio-unchecked</title>
<path class="path1" d="M512 0c-282.77 0-512 229.23-512 512s229.23 512 512 512 512-229.23 512-512-229.23-512-512-512zM512 896c-212.078 0-384-171.922-384-384s171.922-384 384-384c212.078 0 384 171.922 384 384s-171.922 384-384 384z"></path>
</symbol>
<symbol id="icon-google-plus" viewBox="0 0 1024 1024">
<title>google-plus</title>
<path class="path1" d="M325.8 457.4v111.8h184.8c-7.4 48-55.8 140.6-184.8 140.6-111.2 0-202-92.2-202-205.8s90.8-205.8 202-205.8c63.4 0 105.6 27 129.8 50.2l88.4-85.2c-56.8-53-130.4-85.2-218.2-85.2-180.2 0.2-325.8 145.8-325.8 326s145.6 325.8 325.8 325.8c188 0 312.8-132.2 312.8-318.4 0-21.4-2.4-37.8-5.2-54h-307.6z"></path>
<path class="path2" d="M1024 448h-96v-96h-96v96h-96v96h96v96h96v-96h96z"></path>
</symbol>
<symbol id="icon-facebook" viewBox="0 0 1024 1024">
<title>facebook</title>
<path class="path1" d="M608 192h160v-192h-160c-123.514 0-224 100.486-224 224v96h-128v192h128v512h192v-512h160l32-192h-192v-96c0-17.346 14.654-32 32-32z"></path>
</symbol>
<symbol id="icon-instagram" viewBox="0 0 1024 1024">
<title>instagram</title>
<path class="path1" d="M928 0h-832c-52.8 0-96 43.2-96 96v832c0 52.8 43.2 96 96 96h832c52.8 0 96-43.2 96-96v-832c0-52.8-43.2-96-96-96zM704 160c0-17.6 14.4-32 32-32h128c17.6 0 32 14.4 32 32v128c0 17.6-14.4 32-32 32h-128c-17.6 0-32-14.4-32-32v-128zM512 320c106 0 192 86 192 192s-86 192-192 192c-106 0-192-86-192-192s86-192 192-192zM896 864v0c0 17.6-14.4 32-32 32h-704c-17.6 0-32-14.4-32-32v0-416h70.4c-4.2 20.6-6.4 42-6.4 64 0 176.8 143.2 320 320 320s320-143.2 320-320c0-22-2.2-43.4-6.4-64h70.4v416z"></path>
</symbol>
<symbol id="icon-twitter" viewBox="0 0 1024 1024">
<title>twitter</title>
<path class="path1" d="M1024 226.4c-37.6 16.8-78.2 28-120.6 33 43.4-26 76.6-67.2 92.4-116.2-40.6 24-85.6 41.6-133.4 51-38.4-40.8-93-66.2-153.4-66.2-116 0-210 94-210 210 0 16.4 1.8 32.4 5.4 47.8-174.6-8.8-329.4-92.4-433-219.6-18 31-28.4 67.2-28.4 105.6 0 72.8 37 137.2 93.4 174.8-34.4-1-66.8-10.6-95.2-26.2 0 0.8 0 1.8 0 2.6 0 101.8 72.4 186.8 168.6 206-17.6 4.8-36.2 7.4-55.4 7.4-13.6 0-26.6-1.4-39.6-3.8 26.8 83.4 104.4 144.2 196.2 146-72 56.4-162.4 90-261 90-17 0-33.6-1-50.2-3 93.2 59.8 203.6 94.4 322.2 94.4 386.4 0 597.8-320.2 597.8-597.8 0-9.2-0.2-18.2-0.6-27.2 41-29.4 76.6-66.4 104.8-108.6z"></path>
</symbol>
<symbol id="icon-rss" viewBox="0 0 1024 1024">
<title>rss</title>
<path class="path1" d="M136.294 750.93c-75.196 0-136.292 61.334-136.292 136.076 0 75.154 61.1 135.802 136.292 135.802 75.466 0 136.494-60.648 136.494-135.802-0.002-74.742-61.024-136.076-136.494-136.076zM0.156 347.93v196.258c127.784 0 247.958 49.972 338.458 140.512 90.384 90.318 140.282 211.036 140.282 339.3h197.122c-0.002-372.82-303.282-676.070-675.862-676.070zM0.388 0v196.356c455.782 0 826.756 371.334 826.756 827.644h196.856c0-564.47-459.254-1024-1023.612-1024z"></path>
</symbol>
<symbol id="icon-youtube" viewBox="0 0 1024 1024">
<title>youtube</title>
<path class="path1" d="M1013.8 307.2c0 0-10-70.6-40.8-101.6-39-40.8-82.6-41-102.6-43.4-143.2-10.4-358.2-10.4-358.2-10.4h-0.4c0 0-215 0-358.2 10.4-20 2.4-63.6 2.6-102.6 43.4-30.8 31-40.6 101.6-40.6 101.6s-10.2 82.8-10.2 165.8v77.6c0 82.8 10.2 165.8 10.2 165.8s10 70.6 40.6 101.6c39 40.8 90.2 39.4 113 43.8 82 7.8 348.2 10.2 348.2 10.2s215.2-0.4 358.4-10.6c20-2.4 63.6-2.6 102.6-43.4 30.8-31 40.8-101.6 40.8-101.6s10.2-82.8 10.2-165.8v-77.6c-0.2-82.8-10.4-165.8-10.4-165.8zM406.2 644.8v-287.8l276.6 144.4-276.6 143.4z"></path>
</symbol>
<symbol id="icon-vimeo" viewBox="0 0 1024 1024">
<title>vimeo</title>
<path class="path1" d="M1023.6 274c-4.6 99.6-74.2 236.2-208.8 409.4-139.2 180.8-257 271.4-353.4 271.4-59.6 0-110.2-55-151.4-165.2-27.6-101-55-202-82.6-303-30.6-110.2-63.4-165.2-98.6-165.2-7.6 0-34.4 16.2-80.4 48.2l-48.2-62c50.6-44.4 100.4-88.8 149.4-133.2 67.4-58.2 118-88.8 151.8-92 79.6-7.6 128.8 46.8 147.2 163.4 19.8 125.8 33.6 204 41.4 234.6 23 104.4 48.2 156.6 75.8 156.6 21.4 0 53.6-33.8 96.6-101.6 42.8-67.6 65.8-119.2 69-154.6 6.2-58.4-16.8-87.8-69-87.8-24.6 0-49.8 5.6-75.8 16.8 50.4-164.8 146.4-244.8 288.4-240.2 105 2.8 154.6 71 148.6 204.4z"></path>
</symbol>
<symbol id="icon-soundcloud" viewBox="0 0 1024 1024">
<title>soundcloud</title>
<path class="path1" d="M891.96 514.204c-18.086 0-35.348 3.52-51.064 9.856-10.506-114.358-110.29-204.060-232-204.060-29.786 0-58.682 5.63-84.318 15.164-9.96 3.702-12.578 7.52-12.578 14.916v402.714c0 7.766 6.24 14.234 14.124 14.996 0.336 0.034 363.536 0.21 365.89 0.21 72.904 0 131.986-56.816 131.986-126.894s-59.134-126.902-132.040-126.902zM400 768h32l16-224.22-16-223.78h-32l-16 223.78zM304 768h-32l-16-162.75 16-157.25h32l16 160zM144 768h32l16-128-16-128h-32l-16 128zM16 704h32l16-64-16-64h-32l-16 64z"></path>
</symbol>
<symbol id="icon-linkedin2" viewBox="0 0 1024 1024">
<title>linkedin2</title>
<path class="path1" d="M384 384h177.106v90.782h2.532c24.64-44.194 84.958-90.782 174.842-90.782 186.946 0 221.52 116.376 221.52 267.734v308.266h-184.61v-273.278c0-65.184-1.334-149.026-96.028-149.026-96.148 0-110.82 70.986-110.82 144.292v278.012h-184.542v-576z"></path>
<path class="path2" d="M64 384h192v576h-192v-576z"></path>
<path class="path3" d="M256 224c0 53.019-42.981 96-96 96s-96-42.981-96-96c0-53.019 42.981-96 96-96s96 42.981 96 96z"></path>
</symbol>
<symbol id="icon-file-pdf" viewBox="0 0 1024 1024">
<title>file-pdf</title>
<path class="path1" d="M842.012 589.48c-13.648-13.446-43.914-20.566-89.972-21.172-31.178-0.344-68.702 2.402-108.17 7.928-17.674-10.198-35.892-21.294-50.188-34.658-38.462-35.916-70.568-85.772-90.576-140.594 1.304-5.12 2.414-9.62 3.448-14.212 0 0 21.666-123.060 15.932-164.666-0.792-5.706-1.276-7.362-2.808-11.796l-1.882-4.834c-5.894-13.592-17.448-27.994-35.564-27.208l-10.916-0.344c-20.202 0-36.664 10.332-40.986 25.774-13.138 48.434 0.418 120.892 24.98 214.738l-6.288 15.286c-17.588 42.876-39.63 86.060-59.078 124.158l-2.528 4.954c-20.46 40.040-39.026 74.028-55.856 102.822l-17.376 9.188c-1.264 0.668-31.044 16.418-38.028 20.644-59.256 35.38-98.524 75.542-105.038 107.416-2.072 10.17-0.53 23.186 10.014 29.212l16.806 8.458c7.292 3.652 14.978 5.502 22.854 5.502 42.206 0 91.202-52.572 158.698-170.366 77.93-25.37 166.652-46.458 244.412-58.090 59.258 33.368 132.142 56.544 178.142 56.544 8.168 0 15.212-0.78 20.932-2.294 8.822-2.336 16.258-7.368 20.792-14.194 8.926-13.432 10.734-31.932 8.312-50.876-0.72-5.622-5.21-12.574-10.068-17.32zM211.646 814.048c7.698-21.042 38.16-62.644 83.206-99.556 2.832-2.296 9.808-8.832 16.194-14.902-47.104 75.124-78.648 105.066-99.4 114.458zM478.434 199.686c13.566 0 21.284 34.194 21.924 66.254s-6.858 54.56-16.158 71.208c-7.702-24.648-11.426-63.5-11.426-88.904 0 0-0.566-48.558 5.66-48.558v0zM398.852 637.494c9.45-16.916 19.282-34.756 29.33-53.678 24.492-46.316 39.958-82.556 51.478-112.346 22.91 41.684 51.444 77.12 84.984 105.512 4.186 3.542 8.62 7.102 13.276 10.65-68.21 13.496-127.164 29.91-179.068 49.862v0zM828.902 633.652c-4.152 2.598-16.052 4.1-23.708 4.1-24.708 0-55.272-11.294-98.126-29.666 16.468-1.218 31.562-1.838 45.102-1.838 24.782 0 32.12-0.108 56.35 6.072 24.228 6.18 24.538 18.734 20.382 21.332v0z"></path>
<path class="path2" d="M917.806 229.076c-22.21-30.292-53.174-65.7-87.178-99.704s-69.412-64.964-99.704-87.178c-51.574-37.82-76.592-42.194-90.924-42.194h-496c-44.112 0-80 35.888-80 80v864c0 44.112 35.886 80 80 80h736c44.112 0 80-35.888 80-80v-624c0-14.332-4.372-39.35-42.194-90.924v0zM785.374 174.626c30.7 30.7 54.8 58.398 72.58 81.374h-153.954v-153.946c22.982 17.78 50.678 41.878 81.374 72.572v0zM896 944c0 8.672-7.328 16-16 16h-736c-8.672 0-16-7.328-16-16v-864c0-8.672 7.328-16 16-16 0 0 495.956-0.002 496 0v224c0 17.672 14.324 32 32 32h224v624z"></path>
</symbol>
<symbol id="icon-file-openoffice" viewBox="0 0 1024 1024">
<title>file-openoffice</title>
<path class="path1" d="M690.22 471.682c-60.668-28.652-137.97-34.42-194.834 6.048 69.14-6.604 144.958 4.838 195.106 57.124 48-55.080 124.116-65.406 192.958-59.732-57.488-38.144-133.22-33.024-193.23-3.44v0zM665.646 605.75c-68.376-1.578-134.434 23.172-191.1 60.104-107.176-45.588-242.736-37.124-334.002 38.982 26.33-0.934 52.006-7.446 78.056-10.792 95.182-9.488 196.588 14.142 268.512 79.824 29.772-43.542 71.644-78.242 119.652-99.922 63.074-30.52 134.16-33.684 202.82-34.52-41.688-28.648-94.614-33.954-143.938-33.676z"></path>
<path class="path2" d="M917.806 229.076c-22.21-30.292-53.174-65.7-87.178-99.704s-69.412-64.964-99.704-87.178c-51.574-37.82-76.592-42.194-90.924-42.194h-496c-44.112 0-80 35.888-80 80v864c0 44.112 35.886 80 80 80h736c44.112 0 80-35.888 80-80v-624c0-14.332-4.372-39.35-42.194-90.924v0zM785.374 174.626c30.7 30.7 54.8 58.398 72.58 81.374h-153.954v-153.946c22.982 17.78 50.678 41.878 81.374 72.572v0zM896 944c0 8.672-7.328 16-16 16h-736c-8.672 0-16-7.328-16-16v-864c0-8.672 7.328-16 16-16 0 0 495.956-0.002 496 0v224c0 17.672 14.324 32 32 32h224v624z"></path>
</symbol>
<symbol id="icon-file-word" viewBox="0 0 1024 1024">
<title>file-word</title>
<path class="path1" d="M639.778 475.892h44.21l-51.012 226.178-66.324-318.010h-106.55l-77.114 318.010-57.816-318.010h-111.394l113.092 511.88h108.838l76.294-302.708 68.256 302.708h100.336l129.628-511.88h-170.446v91.832z"></path>
<path class="path2" d="M917.806 229.076c-22.21-30.292-53.174-65.7-87.178-99.704s-69.412-64.964-99.704-87.178c-51.574-37.82-76.592-42.194-90.924-42.194h-496c-44.112 0-80 35.888-80 80v864c0 44.112 35.886 80 80 80h736c44.112 0 80-35.888 80-80v-624c0-14.332-4.372-39.35-42.194-90.924v0zM785.374 174.626c30.7 30.7 54.8 58.398 72.58 81.374h-153.954v-153.946c22.982 17.78 50.678 41.878 81.374 72.572v0zM896 944c0 8.672-7.328 16-16 16h-736c-8.672 0-16-7.328-16-16v-864c0-8.672 7.328-16 16-16 0 0 495.956-0.002 496 0v224c0 17.672 14.324 32 32 32h224v624z"></path>
</symbol>
<symbol id="icon-file-excel" viewBox="0 0 1024 1024">
<title>file-excel</title>
<path class="path1" d="M743.028 384h-135.292l-95.732 141.032-95.742-141.032h-135.29l162.162 242.464-182.972 269.536h251.838v-91.576h-50.156l50.156-74.994 111.396 166.57h140.444l-182.976-269.536 162.164-242.464z"></path>
<path class="path2" d="M917.806 229.076c-22.21-30.292-53.174-65.7-87.178-99.704s-69.412-64.964-99.704-87.178c-51.574-37.82-76.592-42.194-90.924-42.194h-496c-44.112 0-80 35.888-80 80v864c0 44.112 35.886 80 80 80h736c44.112 0 80-35.888 80-80v-624c0-14.332-4.372-39.35-42.194-90.924v0zM785.374 174.626c30.7 30.7 54.8 58.398 72.58 81.374h-153.954v-153.946c22.982 17.78 50.678 41.878 81.374 72.572v0zM896 944c0 8.672-7.328 16-16 16h-736c-8.672 0-16-7.328-16-16v-864c0-8.672 7.328-16 16-16 0 0 495.956-0.002 496 0v224c0 17.672 14.324 32 32 32h224v624z"></path>
</symbol>
<symbol id="icon-libreoffice" viewBox="0 0 1024 1024">
<title>libreoffice</title>
<path class="path1" d="M534.626 22.628c-12.444-12.444-37.026-22.628-54.626-22.628h-384c-17.6 0-32 14.4-32 32v960c0 17.6 14.4 32 32 32h768c17.6 0 32-14.4 32-32v-576c0-17.6-10.182-42.182-22.626-54.626l-338.748-338.746zM832 960h-704v-896h351.158c2.916 0.48 8.408 2.754 10.81 4.478l337.556 337.554c1.722 2.402 3.996 7.894 4.476 10.81v543.158zM864 0h-192c-17.6 0-21.818 10.182-9.374 22.626l210.746 210.746c12.446 12.446 22.628 8.228 22.628-9.372v-192c0-17.6-14.4-32-32-32z"></path>
</symbol>
<symbol id="icon-search2" viewBox="0 0 950.8563512165565 1024">
<title>search2</title>
<path class="path1" d="M658.286 475.429q0-105.714-75.143-180.857t-180.857-75.143-180.857 75.143-75.143 180.857 75.143 180.857 180.857 75.143 180.857-75.143 75.143-180.857zM950.857 950.857q0 29.714-21.714 51.429t-51.429 21.714q-30.857 0-51.429-21.714l-196-195.429q-102.286 70.857-228 70.857-81.714 0-156.286-31.714t-128.571-85.714-85.714-128.571-31.714-156.286 31.714-156.286 85.714-128.571 128.571-85.714 156.286-31.714 156.286 31.714 128.571 85.714 85.714 128.571 31.714 156.286q0 125.714-70.857 228l196 196q21.143 21.143 21.143 51.429z"></path>
</symbol>
<symbol id="icon-envelope-o" viewBox="0 0 1024.0009956359863 1024">
<title>envelope-o</title>
<path class="path1" d="M950.857 859.429v-438.857q-18.286 20.571-39.429 37.714-153.143 117.714-243.429 193.143-29.143 24.571-47.429 38.286t-49.429 27.714-58.571 14h-1.143q-27.429 0-58.571-14t-49.429-27.714-47.429-38.286q-90.286-75.429-243.429-193.143-21.143-17.143-39.429-37.714v438.857q0 7.429 5.429 12.857t12.857 5.429h841.143q7.429 0 12.857-5.429t5.429-12.857zM950.857 258.857v-14t-0.286-7.429-1.714-7.143-3.143-5.143-5.143-4.286-8-1.429h-841.143q-7.429 0-12.857 5.429t-5.429 12.857q0 96 84 162.286 110.286 86.857 229.143 181.143 3.429 2.857 20 16.857t26.286 21.429 25.429 18 28.857 15.714 24.571 5.143h1.143q11.429 0 24.571-5.143t28.857-15.714 25.429-18 26.286-21.429 20-16.857q118.857-94.286 229.143-181.143 30.857-24.571 57.429-66t26.571-75.143zM1024 237.714v621.714q0 37.714-26.857 64.571t-64.571 26.857h-841.143q-37.714 0-64.571-26.857t-26.857-64.571v-621.714q0-37.714 26.857-64.571t64.571-26.857h841.143q37.714 0 64.571 26.857t26.857 64.571z"></path>
</symbol>
<symbol id="icon-check" viewBox="0 0 1024.0000610351562 1024">
<title>check</title>
<path class="path1" d="M954.857 323.429q0 22.857-16 38.857l-491.429 491.429q-16 16-38.857 16t-38.857-16l-284.571-284.571q-16-16-16-38.857t16-38.857l77.714-77.714q16-16 38.857-16t38.857 16l168 168.571 374.857-375.429q16-16 38.857-16t38.857 16l77.714 77.714q16 16 16 38.857z"></path>
</symbol>
<symbol id="icon-close" viewBox="0 0 804.5720672607422 1024">
<title>close</title>
<path class="path1" d="M741.714 755.429q0 22.857-16 38.857l-77.714 77.714q-16 16-38.857 16t-38.857-16l-168-168-168 168q-16 16-38.857 16t-38.857-16l-77.714-77.714q-16-16-16-38.857t16-38.857l168-168-168-168q-16-16-16-38.857t16-38.857l77.714-77.714q16-16 38.857-16t38.857 16l168 168 168-168q16-16 38.857-16t38.857 16l77.714 77.714q16 16 16 38.857t-16 38.857l-168 168 168 168q16 16 16 38.857z"></path>
</symbol>
<symbol id="icon-cog" viewBox="0 0 877.7160930633545 1024">
<title>cog</title>
<path class="path1" d="M585.143 512q0-60.571-42.857-103.429t-103.429-42.857-103.429 42.857-42.857 103.429 42.857 103.429 103.429 42.857 103.429-42.857 42.857-103.429zM877.714 449.714v126.857q0 6.857-4.571 13.143t-11.429 7.429l-105.714 16q-10.857 30.857-22.286 52 20 28.571 61.143 78.857 5.714 6.857 5.714 14.286t-5.143 13.143q-15.429 21.143-56.571 61.714t-53.714 40.571q-6.857 0-14.857-5.143l-78.857-61.714q-25.143 13.143-52 21.714-9.143 77.714-16.571 106.286-4 16-20.571 16h-126.857q-8 0-14-4.857t-6.571-12.286l-16-105.143q-28-9.143-51.429-21.143l-80.571 61.143q-5.714 5.143-14.286 5.143-8 0-14.286-6.286-72-65.143-94.286-96-4-5.714-4-13.143 0-6.857 4.571-13.143 8.571-12 29.143-38t30.857-40.286q-15.429-28.571-23.429-56.571l-104.571-15.429q-7.429-1.143-12-7.143t-4.571-13.429v-126.857q0-6.857 4.571-13.143t10.857-7.429l106.286-16q8-26.286 22.286-52.571-22.857-32.571-61.143-78.857-5.714-6.857-5.714-13.714 0-5.714 5.143-13.143 14.857-20.571 56.286-61.429t54-40.857q7.429 0 14.857 5.714l78.857 61.143q25.143-13.143 52-21.714 9.143-77.714 16.571-106.286 4-16 20.571-16h126.857q8 0 14 4.857t6.571 12.286l16 105.143q28 9.143 51.429 21.143l81.143-61.143q5.143-5.143 13.714-5.143 7.429 0 14.286 5.714 73.714 68 94.286 97.143 4 4.571 4 12.571 0 6.857-4.571 13.143-8.571 12-29.143 38t-30.857 40.286q14.857 28.571 23.429 56l104.571 16q7.429 1.143 12 7.143t4.571 13.429z"></path>
</symbol>
<symbol id="icon-trash-o" viewBox="0 0 804.5710134506226 1024">
<title>trash-o</title>
<path class="path1" d="M292.571 420.571v329.143q0 8-5.143 13.143t-13.143 5.143h-36.571q-8 0-13.143-5.143t-5.143-13.143v-329.143q0-8 5.143-13.143t13.143-5.143h36.571q8 0 13.143 5.143t5.143 13.143zM438.857 420.571v329.143q0 8-5.143 13.143t-13.143 5.143h-36.571q-8 0-13.143-5.143t-5.143-13.143v-329.143q0-8 5.143-13.143t13.143-5.143h36.571q8 0 13.143 5.143t5.143 13.143zM585.143 420.571v329.143q0 8-5.143 13.143t-13.143 5.143h-36.571q-8 0-13.143-5.143t-5.143-13.143v-329.143q0-8 5.143-13.143t13.143-5.143h36.571q8 0 13.143 5.143t5.143 13.143zM658.286 834.286v-541.714h-512v541.714q0 12.571 4 23.143t8.286 15.429 6 4.857h475.429q1.714 0 6-4.857t8.286-15.429 4-23.143zM274.286 219.429h256l-27.429-66.857q-4-5.143-9.714-6.286h-181.143q-5.714 1.143-9.714 6.286zM804.571 237.714v36.571q0 8-5.143 13.143t-13.143 5.143h-54.857v541.714q0 47.429-26.857 82t-64.571 34.571h-475.429q-37.714 0-64.571-33.429t-26.857-80.857v-544h-54.857q-8 0-13.143-5.143t-5.143-13.143v-36.571q0-8 5.143-13.143t13.143-5.143h176.571l40-95.429q8.571-21.143 30.857-36t45.143-14.857h182.857q22.857 0 45.143 14.857t30.857 36l40 95.429h176.571q8 0 13.143 5.143t5.143 13.143z"></path>
</symbol>
<symbol id="icon-home" viewBox="0 0 950.8578853607178 1024">
<title>home</title>
<path class="path1" d="M804.571 566.857v274.286q0 14.857-10.857 25.714t-25.714 10.857h-219.429v-219.429h-146.286v219.429h-219.429q-14.857 0-25.714-10.857t-10.857-25.714v-274.286q0-0.571 0.286-1.714t0.286-1.714l328.571-270.857 328.571 270.857q0.571 1.143 0.571 3.429zM932 527.429l-35.429 42.286q-4.571 5.143-12 6.286h-1.714q-7.429 0-12-4l-395.429-329.714-395.429 329.714q-6.857 4.571-13.714 4-7.429-1.143-12-6.286l-35.429-42.286q-4.571-5.714-4-13.429t6.286-12.286l410.857-342.286q18.286-14.857 43.429-14.857t43.429 14.857l139.429 116.571v-111.429q0-8 5.143-13.143t13.143-5.143h109.714q8 0 13.143 5.143t5.143 13.143v233.143l125.143 104q5.714 4.571 6.286 12.286t-4 13.429z"></path>
</symbol>
<symbol id="icon-file-o" viewBox="0 0 877.7160568237305 1024">
<title>file-o</title>
<path class="path1" d="M838.857 217.143q16 16 27.429 43.429t11.429 50.286v658.286q0 22.857-16 38.857t-38.857 16h-768q-22.857 0-38.857-16t-16-38.857v-914.286q0-22.857 16-38.857t38.857-16h512q22.857 0 50.286 11.429t43.429 27.429zM585.143 77.714v214.857h214.857q-5.714-16.571-12.571-23.429l-178.857-178.857q-6.857-6.857-23.429-12.571zM804.571 950.857v-585.143h-237.714q-22.857 0-38.857-16t-16-38.857v-237.714h-438.857v877.714h731.429z"></path>
</symbol>
<symbol id="icon-clock-o" viewBox="0 0 877.7140070597306 1024">
<title>clock-o</title>
<path class="path1" d="M512 310.857v256q0 8-5.143 13.143t-13.143 5.143h-182.857q-8 0-13.143-5.143t-5.143-13.143v-36.571q0-8 5.143-13.143t13.143-5.143h128v-201.143q0-8 5.143-13.143t13.143-5.143h36.571q8 0 13.143 5.143t5.143 13.143zM749.714 512q0-84.571-41.714-156t-113.143-113.143-156-41.714-156 41.714-113.143 113.143-41.714 156 41.714 156 113.143 113.143 156 41.714 156-41.714 113.143-113.143 41.714-156zM877.714 512q0 119.429-58.857 220.286t-159.714 159.714-220.286 58.857-220.286-58.857-159.714-159.714-58.857-220.286 58.857-220.286 159.714-159.714 220.286-58.857 220.286 58.857 159.714 159.714 58.857 220.286z"></path>
</symbol>
<symbol id="icon-arrow-circle-o-down" viewBox="0 0 877.7140070597306 1024">
<title>arrow-circle-o-down</title>
<path class="path1" d="M640 530.286q0 6.857-5.714 13.714l-182.286 182.286q-6.286 5.143-13.143 5.143t-13.143-5.143l-182.857-182.857q-8.571-9.143-4-20 4.571-11.429 17.143-11.429h109.714v-201.143q0-8 5.143-13.143t13.143-5.143h109.714q8 0 13.143 5.143t5.143 13.143v201.143h109.714q8 0 13.143 5.143t5.143 13.143zM438.857 201.143q-84.571 0-156 41.714t-113.143 113.143-41.714 156 41.714 156 113.143 113.143 156 41.714 156-41.714 113.143-113.143 41.714-156-41.714-156-113.143-113.143-156-41.714zM877.714 512q0 119.429-58.857 220.286t-159.714 159.714-220.286 58.857-220.286-58.857-159.714-159.714-58.857-220.286 58.857-220.286 159.714-159.714 220.286-58.857 220.286 58.857 159.714 159.714 58.857 220.286z"></path>
</symbol>
<symbol id="icon-lock2" viewBox="0 0 658.2880783081055 1024">
<title>lock2</title>
<path class="path1" d="M182.857 438.857h292.571v-109.714q0-60.571-42.857-103.429t-103.429-42.857-103.429 42.857-42.857 103.429v109.714zM658.286 493.714v329.143q0 22.857-16 38.857t-38.857 16h-548.571q-22.857 0-38.857-16t-16-38.857v-329.143q0-22.857 16-38.857t38.857-16h18.286v-109.714q0-105.143 75.429-180.571t180.571-75.429 180.571 75.429 75.429 180.571v109.714h18.286q22.857 0 38.857 16t16 38.857z"></path>
</symbol>
<symbol id="icon-tag" viewBox="0 0 865.7139930725098 1024">
<title>tag</title>
<path class="path1" d="M256 256q0-30.286-21.429-51.714t-51.714-21.429-51.714 21.429-21.429 51.714 21.429 51.714 51.714 21.429 51.714-21.429 21.429-51.714zM865.714 585.143q0 30.286-21.143 51.429l-280.571 281.143q-22.286 21.143-52 21.143-30.286 0-51.429-21.143l-408.571-409.143q-21.714-21.143-36.857-57.714t-15.143-66.857v-237.714q0-29.714 21.714-51.429t51.429-21.714h237.714q30.286 0 66.857 15.143t58.286 36.857l408.571 408q21.143 22.286 21.143 52z"></path>
</symbol>
<symbol id="icon-tags" viewBox="0 0 1085.1428871154785 1024">
<title>tags</title>
<path class="path1" d="M256 256q0-30.286-21.429-51.714t-51.714-21.429-51.714 21.429-21.429 51.714 21.429 51.714 51.714 21.429 51.714-21.429 21.429-51.714zM865.714 585.143q0 30.286-21.143 51.429l-280.571 281.143q-22.286 21.143-52 21.143-30.286 0-51.429-21.143l-408.571-409.143q-21.714-21.143-36.857-57.714t-15.143-66.857v-237.714q0-29.714 21.714-51.429t51.429-21.714h237.714q30.286 0 66.857 15.143t58.286 36.857l408.571 408q21.143 22.286 21.143 52zM1085.143 585.143q0 30.286-21.143 51.429l-280.571 281.143q-22.286 21.143-52 21.143-20.571 0-33.714-8t-30.286-25.714l268.571-268.571q21.143-21.143 21.143-51.429 0-29.714-21.143-52l-408.571-408q-21.714-21.714-58.286-36.857t-66.857-15.143h128q30.286 0 66.857 15.143t58.286 36.857l408.571 408q21.143 22.286 21.143 52z"></path>
</symbol>
<symbol id="icon-bookmark" viewBox="0 0 731.4280967712402 1024">
<title>bookmark</title>
<path class="path1" d="M665.143 73.143q13.143 0 25.143 5.143 18.857 7.429 30 23.429t11.143 35.429v736.571q0 19.429-11.143 35.429t-30 23.429q-10.857 4.571-25.143 4.571-27.429 0-47.429-18.286l-252-242.286-252 242.286q-20.571 18.857-47.429 18.857-13.143 0-25.143-5.143-18.857-7.429-30-23.429t-11.143-35.429v-736.571q0-19.429 11.143-35.429t30-23.429q12-5.143 25.143-5.143h598.857z"></path>
</symbol>
<symbol id="icon-video-camera" viewBox="0 0 1023.9979578652419 1024">
<title>video-camera</title>
<path class="path1" d="M1024 201.143v621.714q0 24-22.286 33.714-7.429 2.857-14.286 2.857-15.429 0-25.714-10.857l-230.286-230.286v94.857q0 68-48.286 116.286t-116.286 48.286h-402.286q-68 0-116.286-48.286t-48.286-116.286v-402.286q0-68 48.286-116.286t116.286-48.286h402.286q68 0 116.286 48.286t48.286 116.286v94.286l230.286-229.714q10.286-10.857 25.714-10.857 6.857 0 14.286 2.857 22.286 9.714 22.286 33.714z"></path>
</symbol>
<symbol id="icon-image" viewBox="0 0 1097.1438789367676 1024">
<title>image</title>
<path class="path1" d="M365.714 329.143q0 45.714-32 77.714t-77.714 32-77.714-32-32-77.714 32-77.714 77.714-32 77.714 32 32 77.714zM950.857 548.571v256h-804.571v-109.714l182.857-182.857 91.429 91.429 292.571-292.571zM1005.714 146.286h-914.286q-7.429 0-12.857 5.429t-5.429 12.857v694.857q0 7.429 5.429 12.857t12.857 5.429h914.286q7.429 0 12.857-5.429t5.429-12.857v-694.857q0-7.429-5.429-12.857t-12.857-5.429zM1097.143 164.571v694.857q0 37.714-26.857 64.571t-64.571 26.857h-914.286q-37.714 0-64.571-26.857t-26.857-64.571v-694.857q0-37.714 26.857-64.571t64.571-26.857h914.286q37.714 0 64.571 26.857t26.857 64.571z"></path>
</symbol>
<symbol id="icon-map-marker" viewBox="0 0 585.1460151672363 1024">
<title>map-marker</title>
<path class="path1" d="M438.857 365.714q0-60.571-42.857-103.429t-103.429-42.857-103.429 42.857-42.857 103.429 42.857 103.429 103.429 42.857 103.429-42.857 42.857-103.429zM585.143 365.714q0 62.286-18.857 102.286l-208 442.286q-9.143 18.857-27.143 29.714t-38.571 10.857-38.571-10.857-26.571-29.714l-208.571-442.286q-18.857-40-18.857-102.286 0-121.143 85.714-206.857t206.857-85.714 206.857 85.714 85.714 206.857z"></path>
</symbol>
<symbol id="icon-backward" viewBox="0 0 1020.5721282958984 1024">
<title>backward</title>
<path class="path1" d="M925.143 80.571q10.857-10.857 18.286-7.429t7.429 18.286v841.143q0 14.857-7.429 18.286t-18.286-7.429l-405.714-405.714q-4.571-5.143-7.429-10.857v405.714q0 14.857-7.429 18.286t-18.286-7.429l-405.714-405.714q-10.857-10.857-10.857-25.714t10.857-25.714l405.714-405.714q10.857-10.857 18.286-7.429t7.429 18.286v405.714q2.857-6.286 7.429-10.857z"></path>
</symbol>
<symbol id="icon-play" viewBox="0 0 804.0000019073486 1024">
<title>play</title>
<path class="path1" d="M790.857 529.714l-758.857 421.714q-13.143 7.429-22.571 1.714t-9.429-20.571v-841.143q0-14.857 9.429-20.571t22.571 1.714l758.857 421.714q13.143 7.429 13.143 17.714t-13.143 17.714z"></path>
</symbol>
<symbol id="icon-pause" viewBox="0 0 877.7150535583496 1024">
<title>pause</title>
<path class="path1" d="M877.714 109.714v804.571q0 14.857-10.857 25.714t-25.714 10.857h-292.571q-14.857 0-25.714-10.857t-10.857-25.714v-804.571q0-14.857 10.857-25.714t25.714-10.857h292.571q14.857 0 25.714 10.857t10.857 25.714zM365.714 109.714v804.571q0 14.857-10.857 25.714t-25.714 10.857h-292.571q-14.857 0-25.714-10.857t-10.857-25.714v-804.571q0-14.857 10.857-25.714t25.714-10.857h292.571q14.857 0 25.714 10.857t10.857 25.714z"></path>
</symbol>
<symbol id="icon-stop" viewBox="0 0 877.7150535583496 1024">
<title>stop</title>
<path class="path1" d="M877.714 109.714v804.571q0 14.857-10.857 25.714t-25.714 10.857h-804.571q-14.857 0-25.714-10.857t-10.857-25.714v-804.571q0-14.857 10.857-25.714t25.714-10.857h804.571q14.857 0 25.714 10.857t10.857 25.714z"></path>
</symbol>
<symbol id="icon-forward" viewBox="0 0 881.141923904419 1024">
<title>forward</title>
<path class="path1" d="M25.714 943.429q-10.857 10.857-18.286 7.429t-7.429-18.286v-841.143q0-14.857 7.429-18.286t18.286 7.429l405.714 405.714q4.571 4.571 7.429 10.857v-405.714q0-14.857 7.429-18.286t18.286 7.429l405.714 405.714q10.857 10.857 10.857 25.714t-10.857 25.714l-405.714 405.714q-10.857 10.857-18.286 7.429t-7.429-18.286v-405.714q-2.857 5.714-7.429 10.857z"></path>
</symbol>
<symbol id="icon-plus-circle" viewBox="0 0 877.7140070597306 1024">
<title>plus-circle</title>
<path class="path1" d="M694.857 548.571v-73.143q0-14.857-10.857-25.714t-25.714-10.857h-146.286v-146.286q0-14.857-10.857-25.714t-25.714-10.857h-73.143q-14.857 0-25.714 10.857t-10.857 25.714v146.286h-146.286q-14.857 0-25.714 10.857t-10.857 25.714v73.143q0 14.857 10.857 25.714t25.714 10.857h146.286v146.286q0 14.857 10.857 25.714t25.714 10.857h73.143q14.857 0 25.714-10.857t10.857-25.714v-146.286h146.286q14.857 0 25.714-10.857t10.857-25.714zM877.714 512q0 119.429-58.857 220.286t-159.714 159.714-220.286 58.857-220.286-58.857-159.714-159.714-58.857-220.286 58.857-220.286 159.714-159.714 220.286-58.857 220.286 58.857 159.714 159.714 58.857 220.286z"></path>
</symbol>
<symbol id="icon-minus-circle" viewBox="0 0 877.7140070597306 1024">
<title>minus-circle</title>
<path class="path1" d="M694.857 548.571v-73.143q0-14.857-10.857-25.714t-25.714-10.857h-438.857q-14.857 0-25.714 10.857t-10.857 25.714v73.143q0 14.857 10.857 25.714t25.714 10.857h438.857q14.857 0 25.714-10.857t10.857-25.714zM877.714 512q0 119.429-58.857 220.286t-159.714 159.714-220.286 58.857-220.286-58.857-159.714-159.714-58.857-220.286 58.857-220.286 159.714-159.714 220.286-58.857 220.286 58.857 159.714 159.714 58.857 220.286z"></path>
</symbol>
<symbol id="icon-times-circle" viewBox="0 0 877.7140070597306 1024">
<title>times-circle</title>
<path class="path1" d="M656.571 641.143q0-14.857-10.857-25.714l-103.429-103.429 103.429-103.429q10.857-10.857 10.857-25.714 0-15.429-10.857-26.286l-51.429-51.429q-10.857-10.857-26.286-10.857-14.857 0-25.714 10.857l-103.429 103.429-103.429-103.429q-10.857-10.857-25.714-10.857-15.429 0-26.286 10.857l-51.429 51.429q-10.857 10.857-10.857 26.286 0 14.857 10.857 25.714l103.429 103.429-103.429 103.429q-10.857 10.857-10.857 25.714 0 15.429 10.857 26.286l51.429 51.429q10.857 10.857 26.286 10.857 14.857 0 25.714-10.857l103.429-103.429 103.429 103.429q10.857 10.857 25.714 10.857 15.429 0 26.286-10.857l51.429-51.429q10.857-10.857 10.857-26.286zM877.714 512q0 119.429-58.857 220.286t-159.714 159.714-220.286 58.857-220.286-58.857-159.714-159.714-58.857-220.286 58.857-220.286 159.714-159.714 220.286-58.857 220.286 58.857 159.714 159.714 58.857 220.286z"></path>
</symbol>
<symbol id="icon-check-circle" viewBox="0 0 877.7140070597306 1024">
<title>check-circle</title>
<path class="path1" d="M733.714 419.429q0-16-10.286-26.286l-52-51.429q-10.857-10.857-25.714-10.857t-25.714 10.857l-233.143 232.571-129.143-129.143q-10.857-10.857-25.714-10.857t-25.714 10.857l-52 51.429q-10.286 10.286-10.286 26.286 0 15.429 10.286 25.714l206.857 206.857q10.857 10.857 25.714 10.857 15.429 0 26.286-10.857l310.286-310.286q10.286-10.286 10.286-25.714zM877.714 512q0 119.429-58.857 220.286t-159.714 159.714-220.286 58.857-220.286-58.857-159.714-159.714-58.857-220.286 58.857-220.286 159.714-159.714 220.286-58.857 220.286 58.857 159.714 159.714 58.857 220.286z"></path>
</symbol>
<symbol id="icon-question-circle" viewBox="0 0 877.7140070597306 1024">
<title>question-circle</title>
<path class="path1" d="M512 786.286v-109.714q0-8-5.143-13.143t-13.143-5.143h-109.714q-8 0-13.143 5.143t-5.143 13.143v109.714q0 8 5.143 13.143t13.143 5.143h109.714q8 0 13.143-5.143t5.143-13.143zM658.286 402.286q0-50.286-31.714-93.143t-79.143-66.286-97.143-23.429q-138.857 0-212 121.714-8.571 13.714 4.571 24l75.429 57.143q4 3.429 10.857 3.429 9.143 0 14.286-6.857 30.286-38.857 49.143-52.571 19.429-13.714 49.143-13.714 27.429 0 48.857 14.857t21.429 33.714q0 21.714-11.429 34.857t-38.857 25.714q-36 16-66 49.429t-30 71.714v20.571q0 8 5.143 13.143t13.143 5.143h109.714q8 0 13.143-5.143t5.143-13.143q0-10.857 12.286-28.286t31.143-28.286q18.286-10.286 28-16.286t26.286-20 25.429-27.429 16-34.571 7.143-46.286zM877.714 512q0 119.429-58.857 220.286t-159.714 159.714-220.286 58.857-220.286-58.857-159.714-159.714-58.857-220.286 58.857-220.286 159.714-159.714 220.286-58.857 220.286 58.857 159.714 159.714 58.857 220.286z"></path>
</symbol>
<symbol id="icon-info-circle" viewBox="0 0 877.7140070597306 1024">
<title>info-circle</title>
<path class="path1" d="M585.143 786.286v-91.429q0-8-5.143-13.143t-13.143-5.143h-54.857v-292.571q0-8-5.143-13.143t-13.143-5.143h-182.857q-8 0-13.143 5.143t-5.143 13.143v91.429q0 8 5.143 13.143t13.143 5.143h54.857v182.857h-54.857q-8 0-13.143 5.143t-5.143 13.143v91.429q0 8 5.143 13.143t13.143 5.143h256q8 0 13.143-5.143t5.143-13.143zM512 274.286v-91.429q0-8-5.143-13.143t-13.143-5.143h-109.714q-8 0-13.143 5.143t-5.143 13.143v91.429q0 8 5.143 13.143t13.143 5.143h109.714q8 0 13.143-5.143t5.143-13.143zM877.714 512q0 119.429-58.857 220.286t-159.714 159.714-220.286 58.857-220.286-58.857-159.714-159.714-58.857-220.286 58.857-220.286 159.714-159.714 220.286-58.857 220.286 58.857 159.714 159.714 58.857 220.286z"></path>
</symbol>
<symbol id="icon-mail-forward" viewBox="0 0 1024.0032653808594 1024">
<title>mail-forward</title>
<path class="path1" d="M1024 365.714q0 14.857-10.857 25.714l-292.571 292.571q-10.857 10.857-25.714 10.857t-25.714-10.857-10.857-25.714v-146.286h-128q-56 0-100.286 3.429t-88 12.286-76 24.286-60.286 39.714-45.714 57.714-27.714 79.143-10 103.429q0 31.429 2.857 70.286 0 3.429 1.429 13.429t1.429 15.143q0 8.571-4.857 14.286t-13.429 5.714q-9.143 0-16-9.714-4-5.143-7.429-12.571t-7.714-17.143-6-13.714q-72.571-162.857-72.571-257.714 0-113.714 30.286-190.286 92.571-230.286 500-230.286h128v-146.286q0-14.857 10.857-25.714t25.714-10.857 25.714 10.857l292.571 292.571q10.857 10.857 10.857 25.714z"></path>
</symbol>
<symbol id="icon-plus" viewBox="0 0 804.5719833374023 1024">
<title>plus</title>
<path class="path1" d="M804.571 420.571v109.714q0 22.857-16 38.857t-38.857 16h-237.714v237.714q0 22.857-16 38.857t-38.857 16h-109.714q-22.857 0-38.857-16t-16-38.857v-237.714h-237.714q-22.857 0-38.857-16t-16-38.857v-109.714q0-22.857 16-38.857t38.857-16h237.714v-237.714q0-22.857 16-38.857t38.857-16h109.714q22.857 0 38.857 16t16 38.857v237.714h237.714q22.857 0 38.857 16t16 38.857z"></path>
</symbol>
<symbol id="icon-minus" viewBox="0 0 804.5709762573242 1024">
<title>minus</title>
<path class="path1" d="M804.571 420.571v109.714q0 22.857-16 38.857t-38.857 16h-694.857q-22.857 0-38.857-16t-16-38.857v-109.714q0-22.857 16-38.857t38.857-16h694.857q22.857 0 38.857 16t16 38.857z"></path>
</symbol>
<symbol id="icon-calendar2" viewBox="0 0 950.8564020792255 1024">
<title>calendar2</title>
<path class="path1" d="M73.143 950.857h164.571v-164.571h-164.571v164.571zM274.286 950.857h182.857v-164.571h-182.857v164.571zM73.143 749.714h164.571v-182.857h-164.571v182.857zM274.286 749.714h182.857v-182.857h-182.857v182.857zM73.143 530.286h164.571v-164.571h-164.571v164.571zM493.714 950.857h182.857v-164.571h-182.857v164.571zM274.286 530.286h182.857v-164.571h-182.857v164.571zM713.143 950.857h164.571v-164.571h-164.571v164.571zM493.714 749.714h182.857v-182.857h-182.857v182.857zM292.571 256v-164.571q0-7.429-5.429-12.857t-12.857-5.429h-36.571q-7.429 0-12.857 5.429t-5.429 12.857v164.571q0 7.429 5.429 12.857t12.857 5.429h36.571q7.429 0 12.857-5.429t5.429-12.857zM713.143 749.714h164.571v-182.857h-164.571v182.857zM493.714 530.286h182.857v-164.571h-182.857v164.571zM713.143 530.286h164.571v-164.571h-164.571v164.571zM731.429 256v-164.571q0-7.429-5.429-12.857t-12.857-5.429h-36.571q-7.429 0-12.857 5.429t-5.429 12.857v164.571q0 7.429 5.429 12.857t12.857 5.429h36.571q7.429 0 12.857-5.429t5.429-12.857zM950.857 219.429v731.429q0 29.714-21.714 51.429t-51.429 21.714h-804.571q-29.714 0-51.429-21.714t-21.714-51.429v-731.429q0-29.714 21.714-51.429t51.429-21.714h73.143v-54.857q0-37.714 26.857-64.571t64.571-26.857h36.571q37.714 0 64.571 26.857t26.857 64.571v54.857h219.429v-54.857q0-37.714 26.857-64.571t64.571-26.857h36.571q37.714 0 64.571 26.857t26.857 64.571v54.857h73.143q29.714 0 51.429 21.714t21.714 51.429z"></path>
</symbol>
<symbol id="icon-phone2" viewBox="0 0 804.5699625015259 1024">
<title>phone2</title>
<path class="path1" d="M804.571 708.571q0 15.429-5.714 40.286t-12 39.143q-12 28.571-69.714 60.571-53.714 29.143-106.286 29.143-15.429 0-30-2t-32.857-7.143-27.143-8.286-31.714-11.714-28-10.286q-56-20-100-47.429-73.143-45.143-151.143-123.143t-123.143-151.143q-27.429-44-47.429-100-1.714-5.143-10.286-28t-11.714-31.714-8.286-27.143-7.143-32.857-2-30q0-52.571 29.143-106.286 32-57.714 60.571-69.714 14.286-6.286 39.143-12t40.286-5.714q8 0 12 1.714 10.286 3.429 30.286 43.429 6.286 10.857 17.143 30.857t20 36.286 17.714 30.571q1.714 2.286 10 14.286t12.286 20.286 4 16.286q0 11.429-16.286 28.571t-35.429 31.429-35.429 30.286-16.286 26.286q0 5.143 2.857 12.857t4.857 11.714 8 13.714 6.571 10.857q43.429 78.286 99.429 134.286t134.286 99.429q1.143 0.571 10.857 6.571t13.714 8 11.714 4.857 12.857 2.857q10.286 0 26.286-16.286t30.286-35.429 31.429-35.429 28.571-16.286q8 0 16.286 4t20.286 12.286 14.286 10q14.286 8.571 30.571 17.714t36.286 20 30.857 17.143q40 20 43.429 30.286 1.714 4 1.714 12z"></path>
</symbol>
<symbol id="icon-twitter2" viewBox="0 0 950.8560180664062 1024">
<title>twitter2</title>
<path class="path1" d="M925.714 233.143q-38.286 56-92.571 95.429 0.571 8 0.571 24 0 74.286-21.714 148.286t-66 142-105.429 120.286-147.429 83.429-184.571 31.143q-154.857 0-283.429-82.857 20 2.286 44.571 2.286 128.571 0 229.143-78.857-60-1.143-107.429-36.857t-65.143-91.143q18.857 2.857 34.857 2.857 24.571 0 48.571-6.286-64-13.143-106-63.714t-42-117.429v-2.286q38.857 21.714 83.429 23.429-37.714-25.143-60-65.714t-22.286-88q0-50.286 25.143-93.143 69.143 85.143 168.286 136.286t212.286 56.857q-4.571-21.714-4.571-42.286 0-76.571 54-130.571t130.571-54q80 0 134.857 58.286 62.286-12 117.143-44.571-21.143 65.714-81.143 101.714 53.143-5.714 106.286-28.571z"></path>
</symbol>
<symbol id="icon-facebook2" viewBox="0 0 602.2870178222656 1024">
<title>facebook2</title>
<path class="path1" d="M548 6.857v150.857h-89.714q-49.143 0-66.286 20.571t-17.143 61.714v108h167.429l-22.286 169.143h-145.143v433.714h-174.857v-433.714h-145.714v-169.143h145.714v-124.571q0-106.286 59.429-164.857t158.286-58.571q84 0 130.286 6.857z"></path>
</symbol>
<symbol id="icon-globe" viewBox="0 0 877.7140070597306 1024">
<title>globe</title>
<path class="path1" d="M438.857 73.143q119.429 0 220.286 58.857t159.714 159.714 58.857 220.286-58.857 220.286-159.714 159.714-220.286 58.857-220.286-58.857-159.714-159.714-58.857-220.286 58.857-220.286 159.714-159.714 220.286-58.857zM595.429 370.857q-1.143 0.571-5.429 5.429t-7.714 5.429q1.143 0 2.571-2.857t2.857-6.286 2-4q3.429-4 12.571-8.571 8-3.429 29.714-6.857 19.429-4.571 29.143 6.286-1.143-1.143 5.429-7.429t8.286-6.857q1.714-1.143 8.571-2.571t8.571-4.286l1.143-12.571q-6.857 0.571-10-4t-3.714-12q0 1.143-3.429 4.571 0-4-2.571-4.571t-6.571 0.571-5.143 0.571q-5.714-1.714-8.571-4.286t-4.571-9.429-2.286-8.571q-1.143-2.857-5.429-6t-5.429-6q-0.571-1.143-1.429-3.143t-1.714-3.714-2.286-3.143-3.143-1.429-4 2.857-4.286 5.714-2.571 2.857q-1.714-1.143-3.429-0.857t-2.571 0.571-2.571 1.714-2.857 2q-1.714 1.143-4.857 1.714t-4.857 1.143q8.571-2.857-0.571-6.286-5.714-2.286-9.143-1.714 5.143-2.286 4.286-6.857t-4.857-8h2.857q-0.571-2.286-4.857-4.857t-10-4.857-7.429-3.429q-4.571-2.857-19.429-5.429t-18.857-0.286q-2.857 3.429-2.571 6t2.286 8 2 7.143q0.571 3.429-3.143 7.429t-3.714 6.857q0 4 8 8.857t5.714 12.286q-1.714 4.571-9.143 9.143t-9.143 6.857q-2.857 4.571-0.857 10.571t6 9.429q1.143 1.143 0.857 2.286t-2 2.571-3.143 2.286-3.714 2l-1.714 1.143q-6.286 2.857-11.714-3.429t-7.714-14.857q-4-14.286-9.143-17.143-13.143-4.571-16.571 0.571-2.857-7.429-23.429-14.857-14.286-5.143-33.143-2.286 3.429-0.571 0-8.571-4-8.571-10.857-6.857 1.714-3.429 2.286-10t0.571-7.714q1.714-7.429 6.857-13.143 0.571-0.571 4-4.857t5.429-7.714 0.286-3.429q20 2.286 28.571-6.286 2.857-2.857 6.571-9.714t6-9.714q5.143-3.429 8-3.143t8.286 3.143 8.286 2.857q8 0.571 8.857-6.286t-4.286-11.429q6.857 0.571 1.714-9.714-2.857-4-4.571-5.143-6.857-2.286-15.429 2.857-4.571 2.286 1.143 4.571-0.571-0.571-5.429 6t-9.429 10-9.143-2.857q-0.571-0.571-3.143-7.714t-5.429-7.714q-4.571 0-9.143 8.571 1.714-4.571-6.286-8.571t-13.714-4.571q10.857-6.857-4.571-15.429-4-2.286-11.714-2.857t-11.143 2.286q-2.857 4-3.143 6.571t2.857 4.571 6 3.143 6.571 2.286 4.857 1.714q8 5.714 4.571 8-1.143 0.571-4.857 2t-6.571 2.571-3.429 2.286q-1.714 2.286 0 8t-1.143 8q-2.857-2.857-5.143-10t-4-9.429q4 5.143-14.286 3.429l-5.714-0.571q-2.286 0-9.143 1.143t-11.714 0.571-7.714-4.571q-2.286-4.571 0-11.429 0.571-2.286 2.286-1.143-2.286-1.714-6.286-5.429t-5.714-4.857q-26.286 8.571-53.714 23.429 3.429 0.571 6.857-0.571 2.857-1.143 7.429-3.714t5.714-3.143q19.429-8 24-4l2.857-2.857q8 9.143 11.429 14.286-4-2.286-17.143-0.571-11.429 3.429-12.571 6.857 4 6.857 2.857 10.286-2.286-1.714-6.571-5.714t-8.286-6.286-8.571-2.857q-9.143 0-12.571 0.571-83.429 45.714-134.286 126.857 4 4 6.857 4.571 2.286 0.571 2.857 5.143t1.429 6.286 6.571-1.714q5.143 4.571 1.714 10.857 0.571-0.571 25.143 15.429 10.857 9.714 12 12 1.714 6.286-5.714 10.286-0.571-1.143-5.143-5.143t-5.143-2.286q-1.714 2.857 0.286 10.571t6 7.143q-4 0-5.429 9.143t-1.429 20.286-0.571 13.429l1.143 0.571q-1.714 6.857 3.143 19.714t12.286 11.143q-7.429 1.714 11.429 24.571 3.429 4.571 4.571 5.143 1.714 1.143 6.857 4.286t8.571 5.714 5.714 6q2.286 2.857 5.714 12.857t8 13.429q-1.143 3.429 5.429 11.429t6 13.143q-0.571 0-1.429 0.571t-1.429 0.571q1.714 4 8.857 8t8.857 7.429q0.571 1.714 1.143 5.714t1.714 6.286 4.571 1.143q1.143-11.429-13.714-35.429-8.571-14.286-9.714-16.571-1.714-2.857-3.143-8.857t-2.571-8.286q1.143 0 3.429 0.857t4.857 2 4.286 2.286 1.143 1.714q-1.714 4 1.143 10t6.857 10.571 9.714 10.857 6.857 7.429q3.429 3.429 8 11.143t0 7.714q5.143 0 11.429 5.714t9.714 11.429q2.857 4.571 4.571 14.857t2.857 13.714q1.143 4 4.857 7.714t7.143 5.429l9.143 4.571t7.429 4q2.857 1.143 10.571 6t12.286 6.571q5.714 2.286 9.143 2.286t8.286-1.429 7.714-2q8.571-1.143 16.571 8.571t12 12q20.571 10.857 31.429 6.286-1.143 0.571 0.286 4.286t4.571 8.857 5.143 8.286 3.143 4.857q2.857 3.429 10.286 8.571t10.286 8.571q3.429-2.286 4-5.143-1.714 4.571 4 11.429t10.286 5.714q8-1.714 8-18.286-17.714 8.571-28-10.286 0-0.571-1.429-3.143t-2.286-4.857-1.429-4.857 0-4.286 2.857-1.714q5.143 0 5.714-2t-1.143-7.143-2.286-7.429q-0.571-4.571-6.286-11.429t-6.857-8.571q-2.857 5.143-9.143 4.571t-9.143-5.143q0 0.571-0.857 3.143t-0.857 3.714q-7.429 0-8.571-0.571 0.571-1.714 1.429-10t2-12.857q0.571-2.286 3.143-6.857t4.286-8.286 2.286-7.143-2.571-5.429-10-1.429q-10.857 0.571-14.857 11.429-0.571 1.714-1.714 6t-2.857 6.571-5.143 4q-4 1.714-13.714 1.143t-13.714-2.857q-7.429-4.571-12.857-16.571t-5.429-21.143q0-5.714 1.429-15.143t1.714-14.286-3.143-14q1.714-1.143 5.143-5.429t5.714-6q1.143-0.571 2.571-0.857t2.571 0 2.286-0.857 1.714-3.429q-0.571-0.571-2.286-1.714-1.714-1.714-2.286-1.714 4 1.714 16.286-0.857t15.714 0.857q8.571 6.286 12.571-1.143 0-0.571-1.429-5.429t-0.286-7.714q2.857 15.429 16.571 5.143 1.714 1.714 8.857 2.857t10 2.857q1.714 1.143 4 3.143t3.143 2.571 2.857-0.286 4.857-3.714q5.714 8 6.857 13.714 6.286 22.857 10.857 25.143 4 1.714 6.286 1.143t2.571-5.429 0-8-0.857-7.143l-0.571-4.571v-10.286l-0.571-4.571q-8.571-1.714-10.571-6.857t0.857-10.571 8.571-10.571q0.571-0.571 4.571-2t8.857-3.714 7.143-4.571q12-10.857 8.571-20 4 0 6.286-5.143-0.571 0-2.857-1.714t-4.286-2.857-2.571-1.143q5.143-2.857 1.143-9.143 2.857-1.714 4.286-6.286t4.286-5.714q5.143 6.857 12 1.143 4-4.571 0.571-9.143 2.857-4 11.714-6t10.571-5.429q4 1.143 4.571-1.143t0.571-6.857 1.714-6.857q2.286-2.857 8.571-5.143t7.429-2.857l9.714-6.286q1.714-2.286 0-2.286 10.286 1.143 17.714-6.286 5.714-6.286-3.429-11.429 1.714-3.429-1.714-5.429t-8.571-3.143q1.714-0.571 6.571-0.286t6-0.857q8.571-5.714-4-9.143-9.714-2.857-24.571 6.857zM502.286 872q117.714-20.571 200.571-108-1.714-1.714-7.143-2.571t-7.143-2q-10.286-4-13.714-4.571 0.571-4-1.429-7.429t-4.571-5.143-7.143-4.571-6.286-4q-1.143-1.143-4-3.429t-4-3.143-4.286-2.571-4.857-1.143-5.714 0.571l-1.714 0.571q-1.714 0.571-3.143 1.429t-3.143 1.714-2.286 1.714 0 1.429q-12-9.714-20.571-12.571-2.857-0.571-6.286-3.143t-6-4-5.714-0.857-6.571 4q-2.857 2.857-3.429 8.571t-1.143 7.429q-4-2.857 0-10t1.143-10.571q-1.714-3.429-6-2.571t-6.857 2.571-6.571 4.857-5.143 3.714-4.857 3.143-4.857 4.286q-1.714 2.286-3.429 6.857t-2.857 6.286q-1.143-2.286-6.571-3.714t-5.429-3.143q1.143 5.714 2.286 20t2.857 21.714q4 17.714-6.857 27.429-15.429 14.286-16.571 22.857-2.286 12.571 6.857 14.857 0 4-4.571 11.714t-4 12.286q0 3.429 1.143 9.143z"></path>
</symbol>
<symbol id="icon-wrench" viewBox="0 0 961.7178115844727 1024">
<title>wrench</title>
<path class="path1" d="M219.429 841.143q0-14.857-10.857-25.714t-25.714-10.857-25.714 10.857-10.857 25.714 10.857 25.714 25.714 10.857 25.714-10.857 10.857-25.714zM587.429 601.143l-389.714 389.714q-21.143 21.143-51.429 21.143-29.714 0-52-21.143l-60.571-61.714q-21.714-20.571-21.714-51.429 0-30.286 21.714-52l389.143-389.143q22.286 56 65.429 99.143t99.143 65.429zM949.714 352.571q0 22.286-13.143 60.571-26.857 76.571-94 124.286t-147.714 47.714q-105.714 0-180.857-75.143t-75.143-180.857 75.143-180.857 180.857-75.143q33.143 0 69.429 9.429t61.429 26.571q9.143 6.286 9.143 16t-9.143 16l-167.429 96.571v128l110.286 61.143q2.857-1.714 45.143-27.714t77.429-46.286 40.286-20.286q8.571 0 13.429 5.714t4.857 14.286z"></path>
</symbol>
<symbol id="icon-bars" viewBox="0 0 877.7150535583496 1024">
<title>bars</title>
<path class="path1" d="M877.714 768v73.143q0 14.857-10.857 25.714t-25.714 10.857h-804.571q-14.857 0-25.714-10.857t-10.857-25.714v-73.143q0-14.857 10.857-25.714t25.714-10.857h804.571q14.857 0 25.714 10.857t10.857 25.714zM877.714 475.429v73.143q0 14.857-10.857 25.714t-25.714 10.857h-804.571q-14.857 0-25.714-10.857t-10.857-25.714v-73.143q0-14.857 10.857-25.714t25.714-10.857h804.571q14.857 0 25.714 10.857t10.857 25.714zM877.714 182.857v73.143q0 14.857-10.857 25.714t-25.714 10.857h-804.571q-14.857 0-25.714-10.857t-10.857-25.714v-73.143q0-14.857 10.857-25.714t25.714-10.857h804.571q14.857 0 25.714 10.857t10.857 25.714z"></path>
</symbol>
<symbol id="icon-google-plus2" viewBox="0 0 1316.572110494133 1024">
<title>google-plus2</title>
<path class="path1" d="M821.143 521.714q0 118.857-49.714 211.714t-141.714 145.143-210.857 52.286q-85.143 0-162.857-33.143t-133.714-89.143-89.143-133.714-33.143-162.857 33.143-162.857 89.143-133.714 133.714-89.143 162.857-33.143q163.429 0 280.571 109.714l-113.714 109.143q-66.857-64.571-166.857-64.571-70.286 0-130 35.429t-94.571 96.286-34.857 132.857 34.857 132.857 94.571 96.286 130 35.429q47.429 0 87.143-13.143t65.429-32.857 44.857-44.857 28-47.429 12.286-42.286h-237.714v-144h395.429q6.857 36 6.857 69.714zM1316.571 452v120h-119.429v119.429h-120v-119.429h-119.429v-120h119.429v-119.429h120v119.429h119.429z"></path>
</symbol>
<symbol id="icon-linkedin" viewBox="0 0 877.7143758137245 1024">
<title>linkedin</title>
<path class="path1" d="M199.429 357.143v566.286h-188.571v-566.286h188.571zM211.429 182.286q0.571 41.714-28.857 69.714t-77.429 28h-1.143q-46.857 0-75.429-28t-28.571-69.714q0-42.286 29.429-70t76.857-27.714 76 27.714 29.143 70zM877.714 598.857v324.571h-188v-302.857q0-60-23.143-94t-72.286-34q-36 0-60.286 19.714t-36.286 48.857q-6.286 17.143-6.286 46.286v316h-188q1.143-228 1.143-369.714t-0.571-169.143l-0.571-27.429h188v82.286h-1.143q11.429-18.286 23.429-32t32.286-29.714 49.714-24.857 65.429-8.857q97.714 0 157.143 64.857t59.429 190z"></path>
</symbol>
<symbol id="icon-file-text-o" viewBox="0 0 877.7160568237305 1024">
<title>file-text-o</title>
<path class="path1" d="M838.857 217.143q16 16 27.429 43.429t11.429 50.286v658.286q0 22.857-16 38.857t-38.857 16h-768q-22.857 0-38.857-16t-16-38.857v-914.286q0-22.857 16-38.857t38.857-16h512q22.857 0 50.286 11.429t43.429 27.429zM585.143 77.714v214.857h214.857q-5.714-16.571-12.571-23.429l-178.857-178.857q-6.857-6.857-23.429-12.571zM804.571 950.857v-585.143h-237.714q-22.857 0-38.857-16t-16-38.857v-237.714h-438.857v877.714h731.429zM219.429 457.143q0-8 5.143-13.143t13.143-5.143h402.286q8 0 13.143 5.143t5.143 13.143v36.571q0 8-5.143 13.143t-13.143 5.143h-402.286q-8 0-13.143-5.143t-5.143-13.143v-36.571zM640 585.143q8 0 13.143 5.143t5.143 13.143v36.571q0 8-5.143 13.143t-13.143 5.143h-402.286q-8 0-13.143-5.143t-5.143-13.143v-36.571q0-8 5.143-13.143t13.143-5.143h402.286zM640 731.429q8 0 13.143 5.143t5.143 13.143v36.571q0 8-5.143 13.143t-13.143 5.143h-402.286q-8 0-13.143-5.143t-5.143-13.143v-36.571q0-8 5.143-13.143t13.143-5.143h402.286z"></path>
</symbol>
<symbol id="icon-desktop" viewBox="0 0 1097.1501655578613 1024">
<title>desktop</title>
<path class="path1" d="M1024 566.857v-475.429q0-7.429-5.429-12.857t-12.857-5.429h-914.286q-7.429 0-12.857 5.429t-5.429 12.857v475.429q0 7.429 5.429 12.857t12.857 5.429h914.286q7.429 0 12.857-5.429t5.429-12.857zM1097.143 91.429v621.714q0 37.714-26.857 64.571t-64.571 26.857h-310.857q0 21.143 9.143 44.286t18.286 40.571 9.143 24.857q0 14.857-10.857 25.714t-25.714 10.857h-292.571q-14.857 0-25.714-10.857t-10.857-25.714q0-8 9.143-25.143t18.286-40 9.143-44.571h-310.857q-37.714 0-64.571-26.857t-26.857-64.571v-621.714q0-37.714 26.857-64.571t64.571-26.857h914.286q37.714 0 64.571 26.857t26.857 64.571z"></path>
</symbol>
<symbol id="icon-laptop" viewBox="0 0 1097.1438789367676 1024">
<title>laptop</title>
<path class="path1" d="M237.714 731.429q-37.714 0-64.571-26.857t-26.857-64.571v-402.286q0-37.714 26.857-64.571t64.571-26.857h621.714q37.714 0 64.571 26.857t26.857 64.571v402.286q0 37.714-26.857 64.571t-64.571 26.857h-621.714zM219.429 237.714v402.286q0 7.429 5.429 12.857t12.857 5.429h621.714q7.429 0 12.857-5.429t5.429-12.857v-402.286q0-7.429-5.429-12.857t-12.857-5.429h-621.714q-7.429 0-12.857 5.429t-5.429 12.857zM1005.714 768h91.429v54.857q0 22.857-26.857 38.857t-64.571 16h-914.286q-37.714 0-64.571-16t-26.857-38.857v-54.857h1005.714zM594.286 822.857q9.143 0 9.143-9.143t-9.143-9.143h-91.429q-9.143 0-9.143 9.143t9.143 9.143h91.429z"></path>
</symbol>
<symbol id="icon-tablet" viewBox="0 0 658.2870674133301 1024">
<title>tablet</title>
<path class="path1" d="M365.714 804.571q0-14.857-10.857-25.714t-25.714-10.857-25.714 10.857-10.857 25.714 10.857 25.714 25.714 10.857 25.714-10.857 10.857-25.714zM585.143 713.143v-548.571q0-7.429-5.429-12.857t-12.857-5.429h-475.429q-7.429 0-12.857 5.429t-5.429 12.857v548.571q0 7.429 5.429 12.857t12.857 5.429h475.429q7.429 0 12.857-5.429t5.429-12.857zM658.286 164.571v621.714q0 37.714-26.857 64.571t-64.571 26.857h-475.429q-37.714 0-64.571-26.857t-26.857-64.571v-621.714q0-37.714 26.857-64.571t64.571-26.857h475.429q37.714 0 64.571 26.857t26.857 64.571z"></path>
</symbol>
<symbol id="icon-mobile2" viewBox="0 0 438.8569819132099 1024">
<title>mobile2</title>
<path class="path1" d="M265.143 804.571q0-18.857-13.429-32.286t-32.286-13.429-32.286 13.429-13.429 32.286 13.429 32.286 32.286 13.429 32.286-13.429 13.429-32.286zM384 713.143v-402.286q0-7.429-5.429-12.857t-12.857-5.429h-292.571q-7.429 0-12.857 5.429t-5.429 12.857v402.286q0 7.429 5.429 12.857t12.857 5.429h292.571q7.429 0 12.857-5.429t5.429-12.857zM274.286 228.571q0-9.143-9.143-9.143h-91.429q-9.143 0-9.143 9.143t9.143 9.143h91.429q9.143 0 9.143-9.143zM438.857 219.429v585.143q0 29.714-21.714 51.429t-51.429 21.714h-292.571q-29.714 0-51.429-21.714t-21.714-51.429v-585.143q0-29.714 21.714-51.429t51.429-21.714h292.571q29.714 0 51.429 21.714t21.714 51.429z"></path>
</symbol>
<symbol id="icon-microphone" viewBox="0 0 658.2860565185547 1024">
<title>microphone</title>
<path class="path1" d="M658.286 402.286v73.143q0 126.286-84.286 219.714t-208.286 107.143v75.429h146.286q14.857 0 25.714 10.857t10.857 25.714-10.857 25.714-25.714 10.857h-365.714q-14.857 0-25.714-10.857t-10.857-25.714 10.857-25.714 25.714-10.857h146.286v-75.429q-124-13.714-208.286-107.143t-84.286-219.714v-73.143q0-14.857 10.857-25.714t25.714-10.857 25.714 10.857 10.857 25.714v73.143q0 105.714 75.143 180.857t180.857 75.143 180.857-75.143 75.143-180.857v-73.143q0-14.857 10.857-25.714t25.714-10.857 25.714 10.857 10.857 25.714zM512 182.857v292.571q0 75.429-53.714 129.143t-129.143 53.714-129.143-53.714-53.714-129.143v-292.571q0-75.429 53.714-129.143t129.143-53.714 129.143 53.714 53.714 129.143z"></path>
</symbol>
<symbol id="icon-calendar-o" viewBox="0 0 950.8564020792255 1024">
<title>calendar-o</title>
<path class="path1" d="M73.143 950.857h804.571v-585.143h-804.571v585.143zM292.571 256v-164.571q0-8-5.143-13.143t-13.143-5.143h-36.571q-8 0-13.143 5.143t-5.143 13.143v164.571q0 8 5.143 13.143t13.143 5.143h36.571q8 0 13.143-5.143t5.143-13.143zM731.429 256v-164.571q0-8-5.143-13.143t-13.143-5.143h-36.571q-8 0-13.143 5.143t-5.143 13.143v164.571q0 8 5.143 13.143t13.143 5.143h36.571q8 0 13.143-5.143t5.143-13.143zM950.857 219.429v731.429q0 29.714-21.714 51.429t-51.429 21.714h-804.571q-29.714 0-51.429-21.714t-21.714-51.429v-731.429q0-29.714 21.714-51.429t51.429-21.714h73.143v-54.857q0-37.714 26.857-64.571t64.571-26.857h36.571q37.714 0 64.571 26.857t26.857 64.571v54.857h219.429v-54.857q0-37.714 26.857-64.571t64.571-26.857h36.571q37.714 0 64.571 26.857t26.857 64.571v54.857h73.143q29.714 0 51.429 21.714t21.714 51.429z"></path>
</symbol>
<symbol id="icon-rss-square" viewBox="0 0 877.7130457558669 1024">
<title>rss-square</title>
<path class="path1" d="M292.571 731.429q0-30.286-21.429-51.714t-51.714-21.429-51.714 21.429-21.429 51.714 21.429 51.714 51.714 21.429 51.714-21.429 21.429-51.714zM493.143 785.143q-7.429-132.571-101.143-226.286t-226.286-101.143q-8-0.571-13.714 5.143t-5.714 13.143v73.143q0 7.429 4.857 12.571t12.286 5.714q88 6.286 150.857 69.143t69.143 150.857q0.571 7.429 5.714 12.286t12.571 4.857h73.143q7.429 0 13.143-5.714t5.143-13.714zM712.571 785.714q-2.857-88-32-170t-79.714-148.571-117.143-117.143-148.571-79.714-170-32q-8-0.571-13.143 5.143-5.714 5.714-5.714 13.143v73.143q0 7.429 5.143 12.571t12.571 5.714q116.571 4 216 63.714t159.143 159.143 63.714 216q0.571 7.429 5.714 12.571t12.571 5.143h73.143q7.429 0 13.143-5.714 6.286-5.143 5.143-13.143zM877.714 237.714v548.571q0 68-48.286 116.286t-116.286 48.286h-548.571q-68 0-116.286-48.286t-48.286-116.286v-548.571q0-68 48.286-116.286t116.286-48.286h548.571q68 0 116.286 48.286t48.286 116.286z"></path>
</symbol>
<symbol id="icon-play-circle" viewBox="0 0 877.7140070597306 1024">
<title>play-circle</title>
<path class="path1" d="M438.857 73.143q119.429 0 220.286 58.857t159.714 159.714 58.857 220.286-58.857 220.286-159.714 159.714-220.286 58.857-220.286-58.857-159.714-159.714-58.857-220.286 58.857-220.286 159.714-159.714 220.286-58.857zM658.286 543.429q18.286-10.286 18.286-31.429t-18.286-31.429l-310.857-182.857q-17.714-10.857-36.571-0.571-18.286 10.857-18.286 32v365.714q0 21.143 18.286 32 9.143 4.571 18.286 4.571 9.714 0 18.286-5.143z"></path>
</symbol>
<symbol id="icon-youtube2" viewBox="0 0 877.7149772644043 1024">
<title>youtube2</title>
<path class="path1" d="M554.857 710.857v120.571q0 38.286-22.286 38.286-13.143 0-25.714-12.571v-172q12.571-12.571 25.714-12.571 22.286 0 22.286 38.286zM748 711.429v26.286h-51.429v-26.286q0-38.857 25.714-38.857t25.714 38.857zM196 586.857h61.143v-53.714h-178.286v53.714h60v325.143h57.143v-325.143zM360.571 912h50.857v-282.286h-50.857v216q-17.143 24-32.571 24-10.286 0-12-12-0.571-1.714-0.571-20v-208h-50.857v223.429q0 28 4.571 41.714 6.857 21.143 33.143 21.143 27.429 0 58.286-34.857v30.857zM605.714 827.429v-112.571q0-41.714-5.143-56.571-9.714-32-40.571-32-28.571 0-53.143 30.857v-124h-50.857v378.857h50.857v-27.429q25.714 31.429 53.143 31.429 30.857 0 40.571-31.429 5.143-15.429 5.143-57.143zM798.857 821.714v-7.429h-52q0 29.143-1.143 34.857-4 20.571-22.857 20.571-26.286 0-26.286-39.429v-49.714h102.286v-58.857q0-45.143-15.429-66.286-22.286-29.143-60.571-29.143-38.857 0-61.143 29.143-16 21.143-16 66.286v98.857q0 45.143 16.571 66.286 22.286 29.143 61.714 29.143 41.143 0 61.714-30.286 10.286-15.429 12-30.857 1.143-5.143 1.143-33.143zM451.429 300v-120q0-39.429-24.571-39.429t-24.571 39.429v120q0 40 24.571 40t24.571-40zM862.286 729.143q0 133.714-14.857 200-8 33.714-33.143 56.571t-58.286 26.286q-105.143 12-317.143 12t-317.143-12q-33.143-3.429-58.571-26.286t-32.857-56.571q-14.857-64-14.857-200 0-133.714 14.857-200 8-33.714 33.143-56.571t58.857-26.857q104.571-11.429 316.571-11.429t317.143 11.429q33.143 4 58.571 26.857t32.857 56.571q14.857 64 14.857 200zM292 0h58.286l-69.143 228v154.857h-57.143v-154.857q-8-42.286-34.857-121.143-21.143-58.857-37.143-106.857h60.571l40.571 150.286zM503.429 190.286v100q0 46.286-16 67.429-21.143 29.143-60.571 29.143-38.286 0-60-29.143-16-21.714-16-67.429v-100q0-45.714 16-66.857 21.714-29.143 60-29.143 39.429 0 60.571 29.143 16 21.143 16 66.857zM694.857 97.714v285.143h-52v-31.429q-30.286 35.429-58.857 35.429-26.286 0-33.714-21.143-4.571-13.714-4.571-42.857v-225.143h52v209.714q0 18.857 0.571 20 1.714 12.571 12 12.571 15.429 0 32.571-24.571v-217.714h52z"></path>
</symbol>
<symbol id="icon-instagram2" viewBox="0 0 877.7130457558669 1024">
<title>instagram2</title>
<path class="path1" d="M778.286 814.857v-370.286h-77.143q11.429 36 11.429 74.857 0 72-36.571 132.857t-99.429 96.286-137.143 35.429q-112.571 0-192.571-77.429t-80-187.143q0-38.857 11.429-74.857h-80.571v370.286q0 14.857 10 24.857t24.857 10h610.857q14.286 0 24.571-10t10.286-24.857zM616 510.286q0-70.857-51.714-120.857t-124.857-50q-72.571 0-124.286 50t-51.714 120.857 51.714 120.857 124.286 50q73.143 0 124.857-50t51.714-120.857zM778.286 304.571v-94.286q0-16-11.429-27.714t-28-11.714h-99.429q-16.571 0-28 11.714t-11.429 27.714v94.286q0 16.571 11.429 28t28 11.429h99.429q16.571 0 28-11.429t11.429-28zM877.714 185.714v652.571q0 46.286-33.143 79.429t-79.429 33.143h-652.571q-46.286 0-79.429-33.143t-33.143-79.429v-652.571q0-46.286 33.143-79.429t79.429-33.143h652.571q46.286 0 79.429 33.143t33.143 79.429z"></path>
</symbol>
<symbol id="icon-vimeo2" viewBox="0 0 1029.1426086425781 1024">
<title>vimeo2</title>
<path class="path1" d="M976.571 296q-5.714 134.857-189.714 372-190.286 246.286-321.143 246.286-81.143 0-137.143-150.286-25.143-91.429-75.429-275.429-41.143-149.714-89.714-149.714-10.286 0-72.571 43.429l-44-56q13.714-12 61.714-55.143t74.286-66q89.143-78.857 137.714-83.429 54.286-5.143 87.429 31.714t46.286 116.286q25.143 164 37.714 213.143 31.429 142.286 68.571 142.286 29.143 0 88-92 57.714-92 62.286-140.571 7.429-79.429-62.286-79.429-32.571 0-69.143 14.857 68.571-224.571 262.286-218.286 143.429 4.571 134.857 186.286z"></path>
</symbol>
</defs>
</svg>
