<svg xmlns="http://www.w3.org/2000/svg" xmlns:xlink="http://www.w3.org/1999/xlink" width="0" height="0" style="position:absolute">

<symbol id="icon-calender" viewBox="0 0 30 30">

        <path d="M30 27.9V6.4c0-.6-.2-1.1-.7-1.5-.5-.4-1-.6-1.6-.6h-2.3V2.7c0-.7-.3-1.3-.8-1.9S23.3 0 22.5 0h-1.2c-.8 0-1.5.3-2 .8s-.8 1.1-.8 1.9v1.6h-6.9V2.7c0-.7-.3-1.3-.9-1.9S9.4 0 8.7 0H7.5c-.8 0-1.5.3-2 .8s-.9 1.1-.9 1.9v1.6H2.3c-.6 0-1.2.2-1.6.6-.4.4-.7.9-.7 1.5v21.4c0 .6.2 1.1.7 1.5s1 .6 1.6.6h25.4c.6 0 1.2-.2 1.6-.6s.7-.8.7-1.4zm-2.3 0h-5.2V23h5.2v4.9zm0-5.9h-5.2v-5.3h5.2V22zm0-6.5h-5.2v-4.8h5.2v4.8zm-4.6-8c0 .1-.1.3-.2.4s-.3.2-.4.1h-1.2c-.2 0-.3 0-.4-.1-.1-.1-.2-.2-.2-.4V2.7c0-.1.1-.3.2-.4s.3-.2.4-.2h1.2c.2 0 .3.1.4.2.1.1.2.2.2.4v4.8zm-1.8 20.4h-5.7V23h5.7v4.9zm0-5.9h-5.7v-5.3h5.7V22zm0-6.5h-5.7v-4.8h5.7v4.8zm-6.9 12.4H8.7V23h5.8v4.9zm0-5.9H8.7v-5.3h5.8V22zm0-6.5H8.7v-4.8h5.8v4.8zm-5.2-8c0 .1-.1.3-.2.4 0 .1-.2.2-.3.1H7.5c-.1 0-.3 0-.4-.1-.1-.1-.2-.2-.2-.4V2.7c0-.1.1-.3.2-.4.1-.1.2-.2.4-.2h1.1c.2 0 .3.1.4.2.1.1.2.2.2.4v4.8zM7.5 27.9H2.3V23h5.2v4.9zm0-5.9H2.3v-5.3h5.2V22zm0-6.5H2.3v-4.8h5.2v4.8z"/>
</symbol>

<symbol id="icon-callback" viewBox="0 0 30 30">
        <path d="M15 1c8.3 0 15 5.5 15 12.2 0 6.7-6.7 12.2-15 12.2-.8 0-1.6-.1-2.3-.1-3.3 3.1-7.1 3.7-10.8 3.8v-.8c2-1 3.8-2.8 3.8-4.8 0-.3 0-.6-.1-.8C2.2 20.4 0 17 0 13.1 0 6.4 6.7 1 15 1z"/>
</symbol>

<symbol id="icon-close" viewBox="0 0 30 30">
        <path d="M29.7 24.1L20.6 15l9.1-9.1c.1-.1.2-.2.2-.3.1-.3.1-.7-.2-1L25.4.3c-.3-.3-.7-.3-1-.2-.1 0-.2.1-.3.2L15 9.4 5.9.3C5.8.2 5.7.1 5.6.1c-.4-.2-.8-.1-1 .2L.3 4.6c-.3.2-.4.6-.2 1 0 .1.1.2.2.3L9.4 15 .3 24.1c-.1.1-.2.2-.2.3-.1.3-.1.7.2 1l4.3 4.3c.3.3.7.3 1 .2.1 0 .2-.1.3-.2l9.1-9.1 9.1 9.1c.1.1.2.2.3.2.3.1.7.1 1-.2l4.3-4.3c.3-.3.3-.7.2-1 0-.1-.1-.2-.2-.3z"/>
</symbol>

<symbol id="icon-comment" viewBox="0 0 30 30">
        <path d="M30 10.9c0-2-.5-3.8-1.6-5.5s-2.5-3-4.3-4c-1.8-1-3.8-1.5-5.9-1.5s-4.1.5-5.9 1.5-3.2 2.3-4.3 4-1.6 3.5-1.6 5.5.6 3.8 1.6 5.5 2.5 3 4.3 4c1.8 1 3.8 1.5 5.9 1.5 1 0 1.9-.1 2.9-.3 1.4 1.3 3 2.2 4.6 2.7.4.1.9.2 1.4.3h.1c.1 0 .2-.1.4-.2.1-.1.2-.3.2-.4v-.2-.2-.2l-.1-.1c0-.1-.1-.1-.1-.1l-.1-.1V23c-.1-.1-.2-.3-.4-.5-.2-.3-.4-.5-.5-.6s-.2-.3-.4-.6c-.1-.3-.3-.6-.4-.8-.1-.2-.2-.5-.3-1 1.4-1 2.5-2.3 3.2-3.7.9-1.6 1.3-3.2 1.3-4.9zM19.7 24.4c-.6.1-1.1.1-1.5.1-1.8 0-3.5-.3-5.2-1-1.6-.6-3.1-1.6-4.4-2.7-1.4-1.3-2.5-2.8-3.2-4.5s-1.1-3.5-1.1-5.4c0-1.1.1-2.2.4-3.2-1.4 1-2.6 2.3-3.4 3.8S0 14.6 0 16.3c0 1.7.4 3.3 1.2 4.8.8 1.5 1.9 2.7 3.2 3.7-.1.4-.2.7-.3 1-.1.3-.3.5-.4.8-.2.3-.3.5-.4.6s-.2.4-.4.6c-.2.3-.3.5-.4.5l-.1.1c0 .1-.1.1-.1.1s0 .1-.1.1c0 .1 0 .1-.1.1v.5c0 .2.1.4.2.5.2.3.3.3.5.3.5-.1 1-.2 1.4-.3 1.7-.6 3.2-1.5 4.7-2.7 1 .2 2 .3 2.9.3 3-.1 5.6-1 7.9-2.9z"/>
</symbol>

<symbol id="icon-email" viewBox="0 0 30 30">
        <path d="M4.1 25.3c-1.2 0-2.1-.4-2.9-1.2-.8-.8-1.2-1.8-1.2-3V8.9c0-1.2.4-2.2 1.2-3C2 5.1 3 4.7 4.1 4.7h21.8c1.2 0 2.1.4 2.9 1.3.8.8 1.2 1.8 1.2 3v12.2c0 1.2-.4 2.2-1.2 3-.8.8-1.8 1.2-2.9 1.2H4.1zm-1.3-4c0 .3.2.5.4.7.3.3.6.4.9.4h21.8c.4 0 .7-.2.9-.4.2-.2.3-.4.4-.7l-6.6-5.1-3.7 2.8c-.6.5-1.2.7-1.9.7s-1.4-.2-2-.7l-3.7-2.8-6.5 5.1zm24.4-2.4v-7.8l-5 3.9 5 3.9zm-24.4 0l5-3.9-5-3.9v7.8zm11.4-1.4c.2.2.5.3.8.3s.6-.1.8-.3l3.7-2.9.8-.6 6.9-5.4c0-.3-.2-.5-.4-.7-.3-.3-.6-.4-.9-.4H4c-.3 0-.6.1-.9.4-.1.3-.2.5-.3.8l11.4 8.8z"/>
</symbol>



<symbol id="icon-facebook" viewBox="0 0 30 30">
        <path d="M22 0h-4.8c-2.9 0-6 1.2-6 5.3v4.4H7.9v5.2h3.4V30h6.2V14.8h4.1l.4-5.2h-4.6v-3c0-1.6 1.7-1.5 1.8-1.5H22V0z"/>
</symbol>

<symbol id="icon-google-plus" viewBox="0 0 30 30">
        <path d="M16.4 17.6c-.6-.3-1.3-.4-1.9-.5-.4 0-1.2-.1-2.2-.1-1.1-.1-1.9-.1-2.5-.1-.6 0-1.1 0-1.6-.1-.5 0-1-.1-1.4-.2-.4-.1-.8-.3-1.1-.5-.3-.3-.4-.7-.4-1.2s.2-.9.5-1.2c.3-.3.7-.5 1-.6h2.5c1.9 0 3.6-.6 5.1-1.9 1.4-1.2 2.2-2.7 2.2-4.5 0-.7-.1-1.4-.4-2.1-.2-.7-.6-1.4-1.1-2h4.8v-2h-7.1c-.6-.2-1.3-.4-1.9-.5S9.6 0 8.9 0c-2.2 0-4 .6-5.5 1.9C2 3.1 1.3 4.7 1.3 6.6c0 1.3.4 2.4 1.1 3.4.7 1 1.7 1.8 3.1 2.4v.3c-1 .4-1.8 1-2.3 1.6-.5.6-.8 1.3-.8 2 0 .6.1 1.1.3 1.5.2.4.5.7.9 1 .3.2.7.5 1.1.6.4.2.9.3 1.3.5v.3c-1.7.1-3.1.5-4.2 1.3S.2 23.4.2 24.8c0 1.7.8 3 2.3 3.9 1.4.9 3.7 1.3 6.8 1.3 1.9 0 3.5-.2 4.7-.5s2.4-.9 3.3-1.5c.9-.6 1.5-1.4 1.9-2.2.4-.9.6-1.8.6-2.7 0-1-.2-1.8-.5-2.4-.3-.7-.7-1.2-1.3-1.8-.4-.6-1-1-1.6-1.3zm-4.8-7.3c-.6 1-1.5 1.4-2.7 1.4-1.1 0-1.9-.5-2.6-1.4-.7-1-1-2.2-1-3.7 0-.7.1-1.3.2-2S5.8 3.5 6 3c.3-.5.7-.9 1.1-1.1.5-.3 1-.4 1.7-.4 1.2 0 2.1.5 2.7 1.4.7 1 1 2.2 1 3.8 0 1.5-.3 2.7-.9 3.6zm3.2 17c-1.2.7-2.8 1.1-4.8 1.1-1.2 0-2.2-.1-3-.3-.8-.2-1.5-.5-1.9-.9-.5-.3-.9-.8-1.1-1.2-.2-.4-.3-.9-.3-1.4 0-1.1.3-1.9.9-2.6.6-.7 1.7-1.2 3.2-1.5 1.6 0 3 0 4.2.1 1.2.1 2 .1 2.4.2.7.2 1.3.5 1.6 1 .4.5.5 1.1.5 1.9 0 1.6-.6 2.8-1.7 3.6zM24.3 6.7v4h1.6v-4h4V5.2h-4v-4h-1.6v4h-4v1.5h4z"/>
</symbol>

<symbol id="icon-instagram" viewBox="0 0 32 32">
        <path d="M29 0H3C1.35 0 0 1.35 0 3v26c0 1.65 1.35 3 3 3h26c1.65 0 3-1.35 3-3V3c0-1.65-1.35-3-3-3zm-7 5c0-.55.45-1 1-1h4c.55 0 1 .45 1 1v4c0 .55-.45 1-1 1h-4c-.55 0-1-.45-1-1V5zm-6 5c3.313 0 6 2.688 6 6s-2.688 6-6 6c-3.313 0-6-2.688-6-6s2.688-6 6-6zm12 17c0 .55-.45 1-1 1H5c-.55 0-1-.45-1-1V14h2.2c-.13.644-.2 1.313-.2 2 0 5.525 4.475 10 10 10s10-4.475 10-10c0-.688-.07-1.356-.2-2H28v13z"/>
</symbol>

<symbol id="icon-linkedin" viewBox="0 0 30 30">
        <path d="M3.2.3C1.3.3 0 1.6 0 3.4c0 1.7 1.3 3.1 3.2 3.1 2 0 3.3-1.4 3.3-3.1C6.5 1.6 5.2.3 3.2.3zm-3 29.4h6.1v-21H.2v21zM22.9 9c-2 0-4-.4-6.1 2.9h-.1l-.1-3.2h-5.4c.1 1.7.1 4.3.1 6.8v14.2h6.1V17.6c0-.6.1-1.1.2-1.5.4-1.1 1.4-2.3 3.1-2.3 2.2 0 3.1 1.7 3.1 4.3v11.7H30V17.3c0-5.9-3-8.3-7.1-8.3z"/>
</symbol>

<symbol id="icon-menu" viewBox="0 0 30 30">
        <path d="M0 0h30v6H0zM0 12h30v6H0zM0 24h30v6H0z"/>
</symbol>

<symbol id="icon-phone" viewBox="0 0 30 30">
        <path d="M22 18c-2 2-2 4-4 4s-4-2-6-4-4-4-4-6 2-2 4-4-4-8-6-8-6 6-6 6c0 4 4.1 12.1 8 16 3.9 3.9 12 8 16 8 0 0 6-4 6-6s-6-8-8-6z"/>
</symbol>

<symbol id="icon-post" viewBox="0 0 30 30">
        <path d="M1.1 23.6c-.7.7-1 1.6-1.1 2.6 0 1 .3 1.9 1.1 2.6.8.8 1.6 1.2 2.6 1.2s1.9-.4 2.7-1.1c.8-.7 1.1-1.6 1.1-2.6s-.4-1.9-1.1-2.6c-.7-.7-1.6-1.1-2.7-1.1-1.1-.1-1.9.3-2.6 1zm0-22.5C.4 1.9 0 2.7 0 3.7s.4 1.9 1.1 2.6 1.6 1.1 2.7 1.1c5.2 0 9.6 1.8 13.3 5.5s5.5 8.1 5.5 13.3c0 1 .3 1.9 1.1 2.6.7.8 1.6 1.1 2.7 1.1 1 0 1.9-.4 2.7-1.1.7-.7 1.1-1.6 1.1-2.6 0-4.7-1.2-9.1-3.5-13.1s-5.6-7.2-9.6-9.6S8.5 0 3.7 0c-1 0-1.9.4-2.6 1.1zm0 11.3C.4 13.1 0 14 0 15s.4 1.9 1.1 2.6c.7.7 1.6 1.1 2.7 1.1 2 0 3.8.8 5.3 2.2s2.2 3.2 2.2 5.3c0 1 .4 1.9 1.1 2.6.6.9 1.5 1.2 2.6 1.2s2-.4 2.7-1.1c.7-.7 1.1-1.6 1.1-2.6 0-4.1-1.4-7.7-4.4-10.6s-6.5-4.4-10.6-4.4c-1.1 0-2 .4-2.7 1.1z"/>
</symbol>

<symbol id="icon-profile" viewBox="0 0 30 30">
        <path d="M6.5 22.4C2.2 24 0 25.4 0 26.5V30h30v-3.5c0-1.1-2.2-2.5-6.5-4.1-2-.8-3.4-1.5-4.1-2.3-.7-.8-1.1-1.8-1.1-3.2 0-.5.2-1 .7-1.6.5-.6.8-1.4 1-2.4 0-.3.1-.5.3-.6.1-.1.3-.2.4-.3s.3-.2.4-.6.2-.8.3-1.4c0-.4-.1-.6-.2-.9-.1-.2-.2-.4-.3-.4l-.1-.1c.2-1.1.3-2.1.4-2.9.2-1.2-.2-2.5-1.2-3.8C19 .6 17.4 0 15 0s-4.1.6-5 1.9-1.4 2.6-1.3 3.8l.4 2.9c-.4.2-.6.6-.6 1.4 0 .6.1 1.1.3 1.4.1.4.3.6.4.6.1 0 .3.1.4.3s.2.3.3.6c.2 1.1.5 1.9 1 2.5.5.6.7 1.1.7 1.6 0 1.3-.4 2.4-1.1 3.2-.7.7-2 1.4-4 2.2z"/>
</symbol>

<symbol id="icon-search" viewBox="0 0 40 30">
        <path d="M38.8 25.3l-9.5-5.5c.5-1.5.8-3.2.8-4.9 0-8.3-6.7-15-15-15s-15 6.7-15 15 6.7 15 15 15c4.8 0 9-2.2 11.8-5.7l9.3 5.4c1.2.7 2.7.3 3.4-.9s.3-2.7-.8-3.4zm-23.7.7c-6.1 0-11-4.9-11-11S9 4 15.1 4s11 4.9 11 11-4.9 11-11 11z"/>
</symbol>

<symbol id="icon-share" viewBox="0 0 30 30">
        <path d="M2.1 28.3c.1.1.1.2.2.4s.1.4.2.6c.1.2.2.3.2.4.2.2.3.3.5.3s.3-.1.4-.2c.1-.1.2-.3.2-.5v-.5c0-.2-.1-.3-.1-.4-.1-.9-.1-1.6-.1-2.3 0-1.3.1-2.4.3-3.4.2-1 .5-1.9.8-2.6.3-.7.8-1.4 1.3-1.9s1.1-1 1.8-1.3 1.4-.6 2.2-.8c.9-.2 1.7-.3 2.6-.4.9-.1 1.8-.1 2.9-.1h3.8v4.8c0 .3.1.6.3.8.2.2.5.4.8.4.3 0 .5-.1.8-.4l8.5-9.6c.2-.2.3-.5.3-.8 0-.3-.1-.6-.3-.8L21.2.4c-.3-.3-.5-.4-.8-.4-.3 0-.6.1-.8.3s-.3.5-.3.8V6h-3.8C7.5 6 2.7 8.5.9 13.6c-.6 1.6-.9 3.7-.9 6.2 0 2.1.7 4.9 2.1 8.5z"/>
</symbol>

<symbol id="icon-subscribe" viewBox="0 0 30 30">
        <path d="M1.1 23.6c-.7.7-1 1.6-1.1 2.6 0 1 .3 1.9 1.1 2.6.8.8 1.6 1.2 2.6 1.2s1.9-.4 2.7-1.1c.8-.7 1.1-1.6 1.1-2.6s-.4-1.9-1.1-2.6c-.7-.7-1.6-1.1-2.7-1.1-1.1-.1-1.9.3-2.6 1zm0-22.5C.4 1.9 0 2.7 0 3.7s.4 1.9 1.1 2.6 1.6 1.1 2.7 1.1c5.2 0 9.6 1.8 13.3 5.5s5.5 8.1 5.5 13.3c0 1 .3 1.9 1.1 2.6.7.8 1.6 1.1 2.7 1.1 1 0 1.9-.4 2.7-1.1.7-.7 1.1-1.6 1.1-2.6 0-4.7-1.2-9.1-3.5-13.1s-5.6-7.2-9.6-9.6S8.5 0 3.7 0c-1 0-1.9.4-2.6 1.1zm0 11.3C.4 13.1 0 14 0 15s.4 1.9 1.1 2.6c.7.7 1.6 1.1 2.7 1.1 2 0 3.8.8 5.3 2.2s2.2 3.2 2.2 5.3c0 1 .4 1.9 1.1 2.6.6.9 1.5 1.2 2.6 1.2s2-.4 2.7-1.1c.7-.7 1.1-1.6 1.1-2.6 0-4.1-1.4-7.7-4.4-10.6s-6.5-4.4-10.6-4.4c-1.1 0-2 .4-2.7 1.1z"/>
</symbol>

<symbol id="icon-twitter" viewBox="0 0 30 30">
        <path d="M30 5.7c-1.1.5-2.3.8-3.5 1 1.3-.8 2.2-2 2.7-3.4-1.2.7-2.5 1.2-3.9 1.5-1.1-1.2-2.7-1.9-4.5-1.9-3.4 0-6.2 2.8-6.2 6.2 0 .5.1 1 .2 1.4-5.1-.4-9.7-2.8-12.7-6.6-.5.9-.8 2-.8 3.1 0 2.1 1.1 4 2.7 5.1-1 0-2-.3-2.8-.8v.1c0 3 2.1 5.5 4.9 6-.5.1-1.1.2-1.6.2-.4 0-.8 0-1.2-.1.8 2.4 3.1 4.2 5.7 4.3-2.1 1.7-4.8 2.6-7.6 2.6-.5 0-1 0-1.5-.1 2.7 1.7 6 2.8 9.4 2.8 11.3 0 17.5-9.4 17.5-17.5v-.8c1.3-.8 2.4-1.9 3.2-3.1z"/>
</symbol>

<symbol id="icon-vcard" viewBox="0 0 30 30">
        <path d="M25.9 4.65c1.2 0 2.1.4 2.9 1.3.8.8 1.2 1.8 1.2 3v12.2c0 1.2-.4 2.2-1.2 3-.8.8-1.8 1.2-2.9 1.2H4.1v-.01c-1.2 0-2.1-.4-2.9-1.2-.8-.8-1.2-1.8-1.2-3V8.85c0-1.2.4-2.2 1.2-3 .8-.8 1.8-1.2 2.9-1.2h21.8zm-.15 2.673H4.25c-.818 0-1.482.677-1.482 1.513v11.912c0 .835.664 1.513 1.482 1.513H25.75c.82 0 1.484-.677 1.484-1.512V8.836c0-.836-.664-1.513-1.483-1.513zM8.767 10c.8 0 1.333.2 1.666.633.334.434.467.867.4 1.267-.033.267-.066.6-.133.967l.032.033c.034 0 .067.067.1.133.034.1.067.167.067.3-.034.2-.068.334-.1.467-.034.133-.1.167-.134.2l-.134.1c-.066.033-.1.1-.1.2-.066.333-.166.6-.333.8-.168.2-.234.367-.234.533 0 .467.133.8.366 1.067.234.267.7.5 1.367.767 1.432.533 2.166 1 2.166 1.366V20h-10v-1.167c0-.366.733-.833 2.166-1.366.667-.267 1.1-.5 1.334-.734.233-.266.366-.633.366-1.066 0-.167-.066-.334-.233-.534-.168-.2-.268-.466-.334-.833-.034-.1-.067-.133-.1-.2-.034-.067-.1-.1-.134-.1-.033 0-.1-.067-.133-.2-.068-.1-.1-.267-.1-.467 0-.266.066-.4.2-.466l-.134-.967c-.034-.4.133-.833.433-1.267.3-.433.866-.633 1.666-.633zm17.048 7.707c.222 0 .4.224.4.5 0 .277-.178.5-.4.5h-9.2c-.22 0-.4-.223-.4-.5 0-.276.18-.5.4-.5h9.2zm0-3.346c.222 0 .4.225.4.5 0 .277-.178.5-.4.5h-9.2c-.22 0-.4-.223-.4-.5 0-.275.18-.5.4-.5h9.2zm0-3.483c.222 0 .4.223.4.5 0 .276-.178.5-.4.5h-9.2c-.22 0-.4-.224-.4-.5 0-.277.18-.5.4-.5h9.2z"/>
</symbol>

<symbol id="icon-youtube" viewBox="0 0 30 30">
        <path d="M29.7 8.8s-.1-4.4-4.6-4.5c-4.5-.2-9.6-.3-9.6-.3h-.9s-5.2.1-9.7.3C.3 4.5.3 8.6.3 8.6s-.6 6.6-.1 11.5c.4 3.7 1.2 5.2 5.5 5.4 4.3.2 8.8.5 8.8.5h.9s4.5-.2 8.8-.4c4.3-.2 5.1-1.5 5.5-5.2.6-5 0-11.6 0-11.6zM12 19.2v-8.5l8.1 4.3-8.1 4.2z"/>
</symbol>

<symbol id="icon-houzz" viewBox="0 0 96.03 166.33">
        <defs>
                <style>.cls-1{fill:#80ba27;}.cls-2{fill:#fff;}.cls-3{fill:#1d1d1b;}</style>
        </defs>
<g id="Layer_2" data-name="Layer 2">
<g id="Layer_1-2" data-name="Layer 1">
        <polyline class="cls-1" points="48.02 0 0 27.72 0 83.17 48.02 55.45 48.02 0"/>
        <polyline class="cls-1" points="0 83.17 0 138.61 48.02 110.88 0.01 83.17 0 83.17"/>
        <polyline class="cls-1" points="48.02 110.88 48.02 166.33 96.03 138.61 96.03 83.17 48.02 110.88"/>
        <polyline class="cls-1" points="48.02 55.45 96.03 83.17 96.03 27.72 48.02 55.45"/>
        <polyline class="cls-2" points="0.01 83.17 48.02 110.88 48.02 55.45 0.01 83.17"/>
        <polyline class="cls-3" points="48.02 110.88 96.03 83.17 48.02 55.45 48.02 110.88"/>
</g>
</g>
</symbol>

</svg>
