<svg xmlns="http://www.w3.org/2000/svg" viewBox="0 0 114.92 114.92"><g data-name="Layer 2"><g data-name="Layer 1"><path d="M47.21 47.21a27.68 27.68 0 0 0 6.66-28.37l.56-.56a2.1 2.1 0 0 0-2.26-3.44 27.66 27.66 0 1 0-37.33 37.33 2.1 2.1 0 0 0 3.44 2.26l.56-.56a27.68 27.68 0 0 0 28.37-6.66zM11.07 11.07A23.47 23.47 0 0 1 49 17.81L17.81 49a23.47 23.47 0 0 1-6.74-37.88zm39.4 11.17a23.44 23.44 0 0 1-28.23 28.23z"/><path d="M114.31 111.33L96.23 93.26l3.62-3.62-5.11-5.1L98 81.22 61 36.37a2.11 2.11 0 1 0-3.25 2.68L82.9 69.54 69.26 83.19l-30.2-25.4A2.1 2.1 0 0 0 36.35 61l44.46 37.4 3.69-3.69 5.1 5.11 3.62-3.62 18.07 18.08a2.11 2.11 0 0 0 3-3zM80.56 92.69l-8.07-6.79 13.1-13.1 6.72 8.2zm6.92-1l4.25-4.25 2.13 2.13-4.26 4.26z"/></g></g></svg>